<svg width="485" height="237" viewBox="0 0 485 237" fill="none" xmlns="http://www.w3.org/2000/svg">
<path d="M111.254 209.68C111.072 209.602 110.889 209.484 110.707 209.328C110.551 209.198 110.395 209.029 110.238 208.82C110.082 208.638 109.952 208.404 109.848 208.117C110.577 205.331 111.202 202.909 111.723 200.852C112.217 198.794 112.647 197.076 113.012 195.695C113.402 194.081 113.741 192.727 114.027 191.633C114.288 190.591 114.548 189.549 114.809 188.508C115.017 187.596 115.238 186.62 115.473 185.578C115.733 184.536 115.967 183.56 116.176 182.648C116.436 181.633 116.592 180.826 116.645 180.227C116.697 179.602 116.501 179.068 116.059 178.625C116.371 178.365 116.684 178.169 116.996 178.039C117.335 177.883 117.634 177.779 117.895 177.727C118.181 177.648 118.467 177.622 118.754 177.648C119.457 177.701 119.887 177.922 120.043 178.312C120.225 178.703 120.251 179.328 120.121 180.188C120.095 180.318 120.069 180.435 120.043 180.539C120.043 180.617 120.043 180.708 120.043 180.812C120.408 180.396 120.811 179.992 121.254 179.602C121.697 179.211 122.139 178.859 122.582 178.547C123.051 178.234 123.52 177.987 123.988 177.805C124.483 177.596 124.952 177.492 125.395 177.492C125.993 177.492 126.475 177.648 126.84 177.961C127.23 178.247 127.53 178.638 127.738 179.133C127.947 179.628 128.077 180.188 128.129 180.812C128.181 181.411 128.194 182.01 128.168 182.609C128.142 183.26 128.025 183.951 127.816 184.68C127.634 185.409 127.374 186.151 127.035 186.906C126.697 187.661 126.306 188.404 125.863 189.133C125.421 189.862 124.952 190.539 124.457 191.164C124.561 191.19 124.626 191.216 124.652 191.242C124.678 191.242 124.691 191.255 124.691 191.281C124.691 191.281 124.704 191.294 124.73 191.32C124.783 191.32 124.874 191.32 125.004 191.32C125.603 191.32 126.215 191.164 126.84 190.852C127.465 190.539 128.077 190.148 128.676 189.68C129.275 189.185 129.848 188.651 130.395 188.078C130.967 187.505 131.475 186.958 131.918 186.438C132.387 185.891 132.777 185.409 133.09 184.992C133.402 184.549 133.637 184.237 133.793 184.055C134.001 183.794 134.197 183.625 134.379 183.547C134.561 183.443 134.704 183.43 134.809 183.508C134.913 183.586 134.965 183.742 134.965 183.977C134.965 184.185 134.887 184.458 134.73 184.797C134.626 185.031 134.405 185.409 134.066 185.93C133.728 186.451 133.311 187.036 132.816 187.688C132.322 188.339 131.749 189.016 131.098 189.719C130.473 190.422 129.809 191.06 129.105 191.633C128.402 192.206 127.673 192.674 126.918 193.039C126.189 193.43 125.473 193.625 124.77 193.625C124.431 193.625 124.158 193.612 123.949 193.586C123.741 193.56 123.559 193.508 123.402 193.43C123.272 193.378 123.142 193.312 123.012 193.234C122.882 193.182 122.725 193.117 122.543 193.039C122.074 193.404 121.592 193.677 121.098 193.859C120.603 194.068 120.121 194.172 119.652 194.172C119.21 194.172 118.819 194.094 118.48 193.938C118.168 193.807 117.908 193.612 117.699 193.352C117.491 193.117 117.322 192.857 117.191 192.57C117.061 192.258 116.957 191.958 116.879 191.672C116.853 191.776 116.827 191.867 116.801 191.945C116.801 192.023 116.788 192.128 116.762 192.258C116.449 193.508 116.124 194.953 115.785 196.594C115.499 198 115.147 199.706 114.73 201.711C114.34 203.742 113.923 206.047 113.48 208.625C113.324 209.328 113.051 209.732 112.66 209.836C112.243 209.94 111.775 209.888 111.254 209.68ZM118.402 185.461C118.272 185.904 118.129 186.424 117.973 187.023C117.842 187.596 117.686 188.286 117.504 189.094C117.712 188.938 117.947 188.82 118.207 188.742C118.467 188.664 118.728 188.625 118.988 188.625C119.275 188.625 119.639 188.781 120.082 189.094C120.525 189.38 121.059 189.693 121.684 190.031C122.074 189.562 122.478 189.042 122.895 188.469C123.337 187.87 123.728 187.258 124.066 186.633C124.431 186.008 124.73 185.37 124.965 184.719C125.225 184.068 125.368 183.443 125.395 182.844C125.447 182.062 125.355 181.451 125.121 181.008C124.887 180.565 124.496 180.344 123.949 180.344C123.142 180.344 122.257 180.826 121.293 181.789C120.355 182.727 119.392 183.951 118.402 185.461ZM156.152 185.227C155.788 185.747 155.319 186.398 154.746 187.18C154.173 187.935 153.574 188.703 152.949 189.484C152.35 190.24 151.751 190.943 151.152 191.594C150.579 192.219 150.098 192.661 149.707 192.922C149.447 193.078 149.147 193.208 148.809 193.312C148.47 193.417 148.118 193.482 147.754 193.508C147.415 193.534 147.09 193.508 146.777 193.43C146.465 193.378 146.191 193.273 145.957 193.117C145.723 192.935 145.527 192.674 145.371 192.336C145.241 192.049 145.111 191.672 144.98 191.203C144.876 190.734 144.837 190.148 144.863 189.445C144.238 190.487 143.548 191.294 142.793 191.867C142.038 192.414 141.322 192.818 140.645 193.078C139.863 193.365 139.082 193.534 138.301 193.586C137.936 193.586 137.546 193.456 137.129 193.195C136.712 192.961 136.361 192.583 136.074 192.062C135.788 191.516 135.605 190.826 135.527 189.992C135.449 189.133 135.553 188.117 135.84 186.945C136.204 185.357 136.777 183.911 137.559 182.609C138.366 181.307 139.238 180.201 140.176 179.289C141.113 178.352 142.038 177.648 142.949 177.18C143.861 176.711 144.616 176.503 145.215 176.555C145.918 176.685 146.491 176.893 146.934 177.18C147.298 177.44 147.533 177.831 147.637 178.352C147.767 178.846 147.559 179.51 147.012 180.344C147.376 180.266 147.676 180.214 147.91 180.188C148.171 180.161 148.366 180.148 148.496 180.148C148.652 180.148 148.757 180.161 148.809 180.188C148.835 180.24 148.848 180.357 148.848 180.539C148.848 180.695 148.809 180.995 148.73 181.438C148.652 181.88 148.535 182.479 148.379 183.234C148.223 183.99 148.014 184.966 147.754 186.164C147.702 186.398 147.65 186.62 147.598 186.828C147.572 187.01 147.533 187.206 147.48 187.414C147.454 187.596 147.415 187.818 147.363 188.078C147.311 188.339 147.246 188.664 147.168 189.055C147.142 189.289 147.129 189.549 147.129 189.836C147.155 190.096 147.207 190.344 147.285 190.578C147.363 190.812 147.48 191.008 147.637 191.164C147.819 191.294 148.066 191.359 148.379 191.359C148.639 191.359 148.978 191.203 149.395 190.891C149.811 190.552 150.254 190.135 150.723 189.641C151.191 189.12 151.673 188.56 152.168 187.961C152.689 187.336 153.171 186.737 153.613 186.164C154.056 185.591 154.447 185.083 154.785 184.641C155.15 184.198 155.41 183.872 155.566 183.664C155.775 183.43 155.983 183.299 156.191 183.273C156.4 183.221 156.556 183.273 156.66 183.43C156.764 183.586 156.777 183.82 156.699 184.133C156.647 184.445 156.465 184.81 156.152 185.227ZM144.707 186.945C144.837 186.424 144.993 185.812 145.176 185.109C145.358 184.406 145.514 183.729 145.645 183.078C145.775 182.427 145.866 181.893 145.918 181.477C145.996 181.034 145.983 180.826 145.879 180.852C145.749 180.878 145.605 180.917 145.449 180.969C145.319 181.021 145.15 181.06 144.941 181.086C144.733 181.112 144.525 181.151 144.316 181.203C144.525 180.786 144.642 180.448 144.668 180.188C144.72 179.901 144.733 179.68 144.707 179.523C144.681 179.341 144.629 179.198 144.551 179.094C144.264 178.859 143.757 179.055 143.027 179.68C142.324 180.279 141.504 181.398 140.566 183.039C140.176 183.716 139.863 184.445 139.629 185.227C139.395 185.982 139.225 186.698 139.121 187.375C139.043 188.052 139.03 188.651 139.082 189.172C139.134 189.667 139.238 189.992 139.395 190.148C139.681 190.435 140.007 190.578 140.371 190.578C140.736 190.552 141.1 190.448 141.465 190.266C141.855 190.057 142.233 189.797 142.598 189.484C142.988 189.172 143.327 188.846 143.613 188.508C143.926 188.169 144.173 187.857 144.355 187.57C144.564 187.284 144.681 187.076 144.707 186.945ZM156.051 192.805C155.868 193.091 155.673 193.273 155.465 193.352C155.23 193.456 155.035 193.469 154.879 193.391C154.697 193.339 154.579 193.208 154.527 193C154.475 192.792 154.527 192.531 154.684 192.219C154.762 192.062 154.944 191.711 155.23 191.164C155.491 190.617 155.816 189.966 156.207 189.211C156.572 188.43 156.975 187.596 157.418 186.711C157.861 185.799 158.277 184.94 158.668 184.133C159.085 183.326 159.462 182.609 159.801 181.984C160.139 181.333 160.387 180.865 160.543 180.578C160.257 180.318 160.061 180.135 159.957 180.031C159.853 179.901 159.775 179.641 159.723 179.25C159.671 178.911 159.749 178.469 159.957 177.922C160.165 177.375 160.439 176.854 160.777 176.359C161.116 175.839 161.493 175.396 161.91 175.031C162.327 174.667 162.73 174.484 163.121 174.484C163.85 174.484 164.358 174.719 164.645 175.188C164.957 175.656 165.139 176.138 165.191 176.633C165.243 176.971 165.217 177.401 165.113 177.922C165.009 178.443 164.814 178.911 164.527 179.328C164.605 179.38 164.71 179.445 164.84 179.523C164.97 179.576 165.178 179.602 165.465 179.602C165.882 179.602 166.168 179.576 166.324 179.523C166.507 179.471 166.78 179.445 167.145 179.445C167.587 179.445 167.952 179.562 168.238 179.797C168.525 180.005 168.759 180.279 168.941 180.617C169.124 180.93 169.254 181.281 169.332 181.672C169.436 182.036 169.501 182.375 169.527 182.688C169.605 183.339 169.436 184.016 169.02 184.719C168.603 185.422 168.095 186.19 167.496 187.023C167.132 187.544 166.767 188.13 166.402 188.781C166.038 189.432 165.882 190.018 165.934 190.539C165.986 190.878 166.077 191.151 166.207 191.359C166.337 191.568 166.702 191.672 167.301 191.672C167.743 191.672 168.225 191.516 168.746 191.203C169.293 190.865 169.84 190.448 170.387 189.953C170.96 189.432 171.52 188.872 172.066 188.273C172.613 187.648 173.121 187.049 173.59 186.477C174.059 185.878 174.449 185.344 174.762 184.875C175.1 184.406 175.348 184.068 175.504 183.859C175.634 183.651 175.803 183.508 176.012 183.43C176.22 183.352 176.402 183.352 176.559 183.43C176.715 183.508 176.806 183.664 176.832 183.898C176.884 184.133 176.793 184.445 176.559 184.836C176.402 185.096 176.129 185.513 175.738 186.086C175.374 186.659 174.918 187.297 174.371 188C173.85 188.703 173.264 189.432 172.613 190.188C171.962 190.917 171.272 191.594 170.543 192.219C169.84 192.818 169.124 193.312 168.395 193.703C167.691 194.094 167.014 194.289 166.363 194.289C165.686 194.289 165.126 194.159 164.684 193.898C164.241 193.638 163.876 193.326 163.59 192.961C163.329 192.57 163.134 192.154 163.004 191.711C162.9 191.242 162.861 190.812 162.887 190.422C162.913 190.109 162.991 189.784 163.121 189.445C163.277 189.081 163.447 188.716 163.629 188.352C163.837 187.961 164.046 187.583 164.254 187.219C164.488 186.828 164.697 186.451 164.879 186.086C165.322 185.331 165.673 184.693 165.934 184.172C166.22 183.625 166.363 183.169 166.363 182.805C166.363 182.57 166.311 182.362 166.207 182.18C166.103 181.997 165.934 181.906 165.699 181.906C165.543 181.906 165.426 181.919 165.348 181.945C165.296 181.945 165.23 181.945 165.152 181.945C165.1 181.945 165.009 181.958 164.879 181.984C164.775 181.984 164.605 181.984 164.371 181.984C164.033 181.984 163.746 181.932 163.512 181.828C163.277 181.724 163.056 181.646 162.848 181.594C162.743 181.776 162.509 182.167 162.145 182.766C161.78 183.365 161.35 184.068 160.855 184.875C160.387 185.682 159.879 186.529 159.332 187.414C158.811 188.299 158.316 189.133 157.848 189.914C157.379 190.669 156.988 191.32 156.676 191.867C156.337 192.388 156.129 192.701 156.051 192.805ZM197.824 185.227C197.46 185.747 196.991 186.398 196.418 187.18C195.845 187.935 195.246 188.703 194.621 189.484C194.022 190.24 193.423 190.943 192.824 191.594C192.251 192.219 191.77 192.661 191.379 192.922C191.118 193.078 190.819 193.208 190.48 193.312C190.142 193.417 189.79 193.482 189.426 193.508C189.087 193.534 188.762 193.508 188.449 193.43C188.137 193.378 187.863 193.273 187.629 193.117C187.395 192.935 187.199 192.674 187.043 192.336C186.913 192.049 186.783 191.672 186.652 191.203C186.548 190.734 186.509 190.148 186.535 189.445C185.91 190.487 185.22 191.294 184.465 191.867C183.71 192.414 182.993 192.818 182.316 193.078C181.535 193.365 180.754 193.534 179.973 193.586C179.608 193.586 179.217 193.456 178.801 193.195C178.384 192.961 178.033 192.583 177.746 192.062C177.46 191.516 177.277 190.826 177.199 189.992C177.121 189.133 177.225 188.117 177.512 186.945C177.876 185.357 178.449 183.911 179.23 182.609C180.038 181.307 180.91 180.201 181.848 179.289C182.785 178.352 183.71 177.648 184.621 177.18C185.533 176.711 186.288 176.503 186.887 176.555C187.59 176.685 188.163 176.893 188.605 177.18C188.97 177.44 189.204 177.831 189.309 178.352C189.439 178.846 189.23 179.51 188.684 180.344C189.048 180.266 189.348 180.214 189.582 180.188C189.842 180.161 190.038 180.148 190.168 180.148C190.324 180.148 190.428 180.161 190.48 180.188C190.507 180.24 190.52 180.357 190.52 180.539C190.52 180.695 190.48 180.995 190.402 181.438C190.324 181.88 190.207 182.479 190.051 183.234C189.895 183.99 189.686 184.966 189.426 186.164C189.374 186.398 189.322 186.62 189.27 186.828C189.243 187.01 189.204 187.206 189.152 187.414C189.126 187.596 189.087 187.818 189.035 188.078C188.983 188.339 188.918 188.664 188.84 189.055C188.814 189.289 188.801 189.549 188.801 189.836C188.827 190.096 188.879 190.344 188.957 190.578C189.035 190.812 189.152 191.008 189.309 191.164C189.491 191.294 189.738 191.359 190.051 191.359C190.311 191.359 190.65 191.203 191.066 190.891C191.483 190.552 191.926 190.135 192.395 189.641C192.863 189.12 193.345 188.56 193.84 187.961C194.361 187.336 194.842 186.737 195.285 186.164C195.728 185.591 196.118 185.083 196.457 184.641C196.822 184.198 197.082 183.872 197.238 183.664C197.447 183.43 197.655 183.299 197.863 183.273C198.072 183.221 198.228 183.273 198.332 183.43C198.436 183.586 198.449 183.82 198.371 184.133C198.319 184.445 198.137 184.81 197.824 185.227ZM186.379 186.945C186.509 186.424 186.665 185.812 186.848 185.109C187.03 184.406 187.186 183.729 187.316 183.078C187.447 182.427 187.538 181.893 187.59 181.477C187.668 181.034 187.655 180.826 187.551 180.852C187.421 180.878 187.277 180.917 187.121 180.969C186.991 181.021 186.822 181.06 186.613 181.086C186.405 181.112 186.197 181.151 185.988 181.203C186.197 180.786 186.314 180.448 186.34 180.188C186.392 179.901 186.405 179.68 186.379 179.523C186.353 179.341 186.301 179.198 186.223 179.094C185.936 178.859 185.428 179.055 184.699 179.68C183.996 180.279 183.176 181.398 182.238 183.039C181.848 183.716 181.535 184.445 181.301 185.227C181.066 185.982 180.897 186.698 180.793 187.375C180.715 188.052 180.702 188.651 180.754 189.172C180.806 189.667 180.91 189.992 181.066 190.148C181.353 190.435 181.678 190.578 182.043 190.578C182.408 190.552 182.772 190.448 183.137 190.266C183.527 190.057 183.905 189.797 184.27 189.484C184.66 189.172 184.999 188.846 185.285 188.508C185.598 188.169 185.845 187.857 186.027 187.57C186.236 187.284 186.353 187.076 186.379 186.945ZM221.059 191.672C221.866 191.672 222.751 191.359 223.715 190.734C224.704 190.083 225.655 189.328 226.566 188.469C227.504 187.609 228.35 186.737 229.105 185.852C229.887 184.94 230.473 184.211 230.863 183.664C231.098 183.326 231.319 183.13 231.527 183.078C231.736 183 231.892 183.026 231.996 183.156C232.1 183.286 232.139 183.495 232.113 183.781C232.087 184.042 231.97 184.341 231.762 184.68C231.579 184.992 231.267 185.448 230.824 186.047C230.408 186.62 229.9 187.258 229.301 187.961C228.728 188.638 228.064 189.341 227.309 190.07C226.579 190.773 225.811 191.424 225.004 192.023C224.197 192.596 223.363 193.065 222.504 193.43C221.645 193.82 220.798 194.016 219.965 194.016C218.819 194.016 217.855 193.794 217.074 193.352C216.319 192.935 215.707 192.388 215.238 191.711C214.796 191.034 214.483 190.292 214.301 189.484C214.118 188.651 214.027 187.831 214.027 187.023C214.027 186.216 214.21 185.214 214.574 184.016C214.939 182.818 215.473 181.672 216.176 180.578C216.905 179.458 217.816 178.508 218.91 177.727C220.004 176.919 221.293 176.516 222.777 176.516C223.611 176.516 224.314 176.802 224.887 177.375C225.486 177.948 225.772 178.729 225.746 179.719C225.746 180.188 225.668 180.656 225.512 181.125C225.355 181.568 225.147 181.971 224.887 182.336C224.626 182.674 224.314 182.948 223.949 183.156C223.611 183.365 223.233 183.469 222.816 183.469C222.478 183.469 222.217 183.352 222.035 183.117C221.879 182.857 221.775 182.57 221.723 182.258C221.697 181.919 221.697 181.594 221.723 181.281C221.775 180.969 221.827 180.76 221.879 180.656C222.009 180.474 222.152 180.344 222.309 180.266C222.465 180.188 222.647 180.096 222.855 179.992C223.012 179.914 223.129 179.797 223.207 179.641C223.311 179.484 223.363 179.315 223.363 179.133C223.363 178.951 223.311 178.794 223.207 178.664C223.103 178.534 222.934 178.469 222.699 178.469C222.465 178.469 222.035 178.664 221.41 179.055C220.811 179.419 220.186 179.979 219.535 180.734C218.91 181.464 218.35 182.388 217.855 183.508C217.361 184.628 217.1 185.93 217.074 187.414C217.048 188.273 217.165 188.977 217.426 189.523C217.686 190.07 218.012 190.5 218.402 190.812C218.793 191.125 219.223 191.346 219.691 191.477C220.16 191.607 220.616 191.672 221.059 191.672ZM244.512 186.789C244.251 187.779 243.9 188.703 243.457 189.562C243.014 190.422 242.48 191.164 241.855 191.789C241.257 192.414 240.566 192.896 239.785 193.234C239.03 193.599 238.197 193.781 237.285 193.781C236.217 193.781 235.371 193.547 234.746 193.078C234.147 192.635 233.691 192.076 233.379 191.398C233.092 190.721 232.923 189.979 232.871 189.172C232.793 188.365 232.754 187.609 232.754 186.906C232.754 186.411 232.819 185.865 232.949 185.266C233.053 184.667 233.21 184.055 233.418 183.43C233.626 182.805 233.887 182.18 234.199 181.555C234.538 180.93 234.928 180.357 235.371 179.836C235.527 179.393 235.762 179.003 236.074 178.664C236.413 178.326 236.79 178.052 237.207 177.844C237.65 177.609 238.118 177.44 238.613 177.336C239.108 177.206 239.59 177.141 240.059 177.141C240.137 177.141 240.202 177.154 240.254 177.18C240.332 177.206 240.41 177.232 240.488 177.258C240.827 177.284 241.243 177.414 241.738 177.648C242.259 177.883 242.754 178.234 243.223 178.703C243.717 179.172 244.134 179.771 244.473 180.5C244.811 181.203 244.98 182.062 244.98 183.078C244.98 183.286 244.967 183.547 244.941 183.859C244.915 184.146 244.889 184.393 244.863 184.602C245.462 184.367 246.087 184.081 246.738 183.742C247.389 183.404 248.014 183.052 248.613 182.688C249.238 182.297 249.811 181.906 250.332 181.516C250.853 181.125 251.27 180.773 251.582 180.461C251.842 180.227 252.064 180.096 252.246 180.07C252.428 180.044 252.559 180.096 252.637 180.227C252.715 180.357 252.728 180.539 252.676 180.773C252.624 181.008 252.48 181.268 252.246 181.555C252.116 181.711 251.777 182.023 251.23 182.492C250.71 182.961 250.085 183.469 249.355 184.016C248.626 184.562 247.832 185.096 246.973 185.617C246.113 186.138 245.293 186.529 244.512 186.789ZM237.91 180.852C237.832 181.086 237.793 181.333 237.793 181.594C237.793 182.01 237.819 182.453 237.871 182.922C237.923 183.365 238.053 183.768 238.262 184.133C238.47 184.497 238.796 184.81 239.238 185.07C239.707 185.305 240.345 185.422 241.152 185.422C241.283 185.422 241.413 185.422 241.543 185.422C241.673 185.396 241.803 185.37 241.934 185.344C242.012 185.005 242.077 184.706 242.129 184.445C242.207 184.159 242.246 183.911 242.246 183.703C242.298 183.208 242.298 182.701 242.246 182.18C242.194 181.659 242.09 181.19 241.934 180.773C241.803 180.331 241.621 179.979 241.387 179.719C241.178 179.432 240.918 179.289 240.605 179.289C240.111 179.289 239.629 179.432 239.16 179.719C238.717 179.979 238.301 180.357 237.91 180.852ZM235.41 187.727C235.41 188.195 235.436 188.664 235.488 189.133C235.54 189.576 235.645 189.979 235.801 190.344C235.957 190.682 236.165 190.969 236.426 191.203C236.686 191.411 237.025 191.516 237.441 191.516C237.91 191.516 238.34 191.411 238.73 191.203C239.121 190.969 239.473 190.682 239.785 190.344C240.098 189.979 240.371 189.576 240.605 189.133C240.866 188.664 241.087 188.182 241.27 187.688C241.087 187.714 240.905 187.74 240.723 187.766C240.566 187.766 240.384 187.766 240.176 187.766C239.186 187.766 238.327 187.479 237.598 186.906C236.895 186.307 236.348 185.552 235.957 184.641C235.801 185.188 235.671 185.721 235.566 186.242C235.462 186.763 235.41 187.258 235.41 187.727ZM264.293 193.977C263.694 193.977 263.173 193.859 262.73 193.625C262.314 193.417 261.975 193.13 261.715 192.766C261.454 192.401 261.285 191.984 261.207 191.516C261.129 191.021 261.155 190.5 261.285 189.953C261.363 189.589 261.493 189.107 261.676 188.508C261.858 187.883 262.04 187.219 262.223 186.516C262.431 185.786 262.613 185.07 262.77 184.367C262.952 183.638 263.069 182.987 263.121 182.414C263.173 181.815 263.147 181.333 263.043 180.969C262.939 180.578 262.717 180.383 262.379 180.383C261.962 180.383 261.533 180.526 261.09 180.812C260.647 181.073 260.191 181.438 259.723 181.906C259.28 182.375 258.824 182.922 258.355 183.547C257.913 184.146 257.47 184.771 257.027 185.422C256.793 186.307 256.598 187.089 256.441 187.766C256.285 188.417 256.142 189.016 256.012 189.562C255.908 190.083 255.803 190.552 255.699 190.969C255.595 191.359 255.504 191.737 255.426 192.102C255.348 192.362 255.113 192.622 254.723 192.883C254.332 193.117 253.915 193.312 253.473 193.469C253.03 193.625 252.652 193.703 252.34 193.703C252.001 193.703 251.858 193.586 251.91 193.352C251.936 193.195 252.027 192.844 252.184 192.297C252.314 191.75 252.483 191.112 252.691 190.383C252.874 189.628 253.069 188.833 253.277 188C253.486 187.167 253.681 186.372 253.863 185.617C253.993 185.018 254.137 184.354 254.293 183.625C254.423 183 254.579 182.271 254.762 181.438C254.97 180.604 255.204 179.693 255.465 178.703C255.647 178.547 255.829 178.43 256.012 178.352C256.22 178.247 256.428 178.169 256.637 178.117C256.845 178.039 257.066 177.987 257.301 177.961C257.509 177.961 257.717 177.974 257.926 178C258.108 178.026 258.29 178.078 258.473 178.156C258.681 178.208 258.863 178.299 259.02 178.43C258.941 178.612 258.85 178.872 258.746 179.211C258.642 179.523 258.538 179.862 258.434 180.227C258.329 180.643 258.199 181.073 258.043 181.516C258.382 181.047 258.759 180.578 259.176 180.109C259.618 179.615 260.087 179.172 260.582 178.781C261.103 178.391 261.65 178.078 262.223 177.844C262.796 177.583 263.382 177.453 263.98 177.453C264.475 177.453 264.918 177.596 265.309 177.883C265.699 178.169 265.999 178.573 266.207 179.094C266.441 179.589 266.572 180.188 266.598 180.891C266.65 181.594 266.559 182.362 266.324 183.195L265.895 184.914C265.764 185.461 265.595 186.112 265.387 186.867C265.204 187.596 264.97 188.404 264.684 189.289C264.527 189.862 264.462 190.357 264.488 190.773C264.54 191.19 264.801 191.398 265.27 191.398C265.738 191.398 266.324 191.112 267.027 190.539C267.757 189.966 268.486 189.276 269.215 188.469C269.944 187.661 270.634 186.841 271.285 186.008C271.936 185.148 272.431 184.458 272.77 183.938C273.004 183.599 273.225 183.378 273.434 183.273C273.642 183.169 273.798 183.156 273.902 183.234C274.033 183.312 274.098 183.495 274.098 183.781C274.098 184.042 273.993 184.38 273.785 184.797C273.603 185.161 273.316 185.643 272.926 186.242C272.561 186.841 272.118 187.479 271.598 188.156C271.077 188.833 270.517 189.523 269.918 190.227C269.319 190.904 268.694 191.529 268.043 192.102C267.392 192.648 266.741 193.091 266.09 193.43C265.465 193.794 264.866 193.977 264.293 193.977ZM289.582 183.117C289.686 182.961 289.816 182.87 289.973 182.844C290.155 182.792 290.298 182.805 290.402 182.883C290.507 182.961 290.559 183.091 290.559 183.273C290.585 183.456 290.52 183.703 290.363 184.016C289.842 185.005 289.152 186.073 288.293 187.219C287.46 188.365 286.574 189.445 285.637 190.461C284.699 191.451 283.788 192.271 282.902 192.922C282.017 193.573 281.275 193.898 280.676 193.898C279.816 193.898 279.1 193.729 278.527 193.391C277.954 193.052 277.499 192.635 277.16 192.141C276.848 191.646 276.626 191.112 276.496 190.539C276.366 189.94 276.327 189.393 276.379 188.898C276.405 188.482 276.496 187.74 276.652 186.672C276.809 185.578 277.017 184.328 277.277 182.922C277.538 181.49 277.824 179.966 278.137 178.352C278.475 176.711 278.827 175.135 279.191 173.625C278.749 173.677 278.306 173.729 277.863 173.781C277.421 173.833 277.017 173.859 276.652 173.859C275.819 173.859 275.038 173.768 274.309 173.586C273.553 173.378 272.993 173.182 272.629 173C272.421 172.896 272.329 172.753 272.355 172.57C272.382 172.362 272.46 172.167 272.59 171.984C272.72 171.776 272.889 171.607 273.098 171.477C273.28 171.32 273.449 171.242 273.605 171.242C274.1 171.294 274.634 171.346 275.207 171.398C275.78 171.424 276.405 171.424 277.082 171.398C277.577 171.372 278.046 171.333 278.488 171.281C278.957 171.229 279.413 171.164 279.855 171.086C280.194 169.836 280.52 168.755 280.832 167.844C281.171 166.906 281.47 166.255 281.73 165.891C281.809 165.76 281.978 165.656 282.238 165.578C282.525 165.474 282.824 165.409 283.137 165.383C283.449 165.331 283.749 165.331 284.035 165.383C284.322 165.409 284.53 165.5 284.66 165.656C284.79 165.865 284.842 166.398 284.816 167.258C284.79 168.117 284.647 169.211 284.387 170.539C285.48 170.539 286.444 170.604 287.277 170.734C288.137 170.839 288.866 170.969 289.465 171.125C290.064 171.255 290.546 171.398 290.91 171.555C291.275 171.685 291.548 171.776 291.73 171.828C291.913 171.88 292.004 172.01 292.004 172.219C292.03 172.427 291.991 172.648 291.887 172.883C291.809 173.091 291.665 173.273 291.457 173.43C291.249 173.586 291.014 173.638 290.754 173.586C290.493 173.56 290.194 173.508 289.855 173.43C289.543 173.352 289.152 173.286 288.684 173.234C288.241 173.182 287.707 173.13 287.082 173.078C286.457 173.026 285.728 173 284.895 173C284.738 173 284.556 173.013 284.348 173.039C284.165 173.039 283.97 173.039 283.762 173.039C283.658 173.456 283.553 173.872 283.449 174.289C283.371 174.68 283.254 175.096 283.098 175.539C282.759 176.581 282.368 177.714 281.926 178.938C281.535 180.005 281.066 181.229 280.52 182.609C279.973 183.99 279.361 185.461 278.684 187.023C278.527 188.143 278.54 189.003 278.723 189.602C278.931 190.174 279.178 190.591 279.465 190.852C279.803 191.138 280.22 191.294 280.715 191.32C281.105 191.372 281.574 191.242 282.121 190.93C282.694 190.591 283.28 190.148 283.879 189.602C284.478 189.055 285.077 188.456 285.676 187.805C286.301 187.154 286.874 186.516 287.395 185.891C287.915 185.266 288.371 184.706 288.762 184.211C289.152 183.69 289.426 183.326 289.582 183.117ZM311.277 185.227C310.913 185.747 310.444 186.398 309.871 187.18C309.298 187.935 308.699 188.703 308.074 189.484C307.475 190.24 306.876 190.943 306.277 191.594C305.704 192.219 305.223 192.661 304.832 192.922C304.572 193.078 304.272 193.208 303.934 193.312C303.595 193.417 303.243 193.482 302.879 193.508C302.54 193.534 302.215 193.508 301.902 193.43C301.59 193.378 301.316 193.273 301.082 193.117C300.848 192.935 300.652 192.674 300.496 192.336C300.366 192.049 300.236 191.672 300.105 191.203C300.001 190.734 299.962 190.148 299.988 189.445C299.363 190.487 298.673 191.294 297.918 191.867C297.163 192.414 296.447 192.818 295.77 193.078C294.988 193.365 294.207 193.534 293.426 193.586C293.061 193.586 292.671 193.456 292.254 193.195C291.837 192.961 291.486 192.583 291.199 192.062C290.913 191.516 290.73 190.826 290.652 189.992C290.574 189.133 290.678 188.117 290.965 186.945C291.329 185.357 291.902 183.911 292.684 182.609C293.491 181.307 294.363 180.201 295.301 179.289C296.238 178.352 297.163 177.648 298.074 177.18C298.986 176.711 299.741 176.503 300.34 176.555C301.043 176.685 301.616 176.893 302.059 177.18C302.423 177.44 302.658 177.831 302.762 178.352C302.892 178.846 302.684 179.51 302.137 180.344C302.501 180.266 302.801 180.214 303.035 180.188C303.296 180.161 303.491 180.148 303.621 180.148C303.777 180.148 303.882 180.161 303.934 180.188C303.96 180.24 303.973 180.357 303.973 180.539C303.973 180.695 303.934 180.995 303.855 181.438C303.777 181.88 303.66 182.479 303.504 183.234C303.348 183.99 303.139 184.966 302.879 186.164C302.827 186.398 302.775 186.62 302.723 186.828C302.697 187.01 302.658 187.206 302.605 187.414C302.579 187.596 302.54 187.818 302.488 188.078C302.436 188.339 302.371 188.664 302.293 189.055C302.267 189.289 302.254 189.549 302.254 189.836C302.28 190.096 302.332 190.344 302.41 190.578C302.488 190.812 302.605 191.008 302.762 191.164C302.944 191.294 303.191 191.359 303.504 191.359C303.764 191.359 304.103 191.203 304.52 190.891C304.936 190.552 305.379 190.135 305.848 189.641C306.316 189.12 306.798 188.56 307.293 187.961C307.814 187.336 308.296 186.737 308.738 186.164C309.181 185.591 309.572 185.083 309.91 184.641C310.275 184.198 310.535 183.872 310.691 183.664C310.9 183.43 311.108 183.299 311.316 183.273C311.525 183.221 311.681 183.273 311.785 183.43C311.889 183.586 311.902 183.82 311.824 184.133C311.772 184.445 311.59 184.81 311.277 185.227ZM299.832 186.945C299.962 186.424 300.118 185.812 300.301 185.109C300.483 184.406 300.639 183.729 300.77 183.078C300.9 182.427 300.991 181.893 301.043 181.477C301.121 181.034 301.108 180.826 301.004 180.852C300.874 180.878 300.73 180.917 300.574 180.969C300.444 181.021 300.275 181.06 300.066 181.086C299.858 181.112 299.65 181.151 299.441 181.203C299.65 180.786 299.767 180.448 299.793 180.188C299.845 179.901 299.858 179.68 299.832 179.523C299.806 179.341 299.754 179.198 299.676 179.094C299.389 178.859 298.882 179.055 298.152 179.68C297.449 180.279 296.629 181.398 295.691 183.039C295.301 183.716 294.988 184.445 294.754 185.227C294.52 185.982 294.35 186.698 294.246 187.375C294.168 188.052 294.155 188.651 294.207 189.172C294.259 189.667 294.363 189.992 294.52 190.148C294.806 190.435 295.132 190.578 295.496 190.578C295.861 190.552 296.225 190.448 296.59 190.266C296.98 190.057 297.358 189.797 297.723 189.484C298.113 189.172 298.452 188.846 298.738 188.508C299.051 188.169 299.298 187.857 299.48 187.57C299.689 187.284 299.806 187.076 299.832 186.945ZM325.082 185.539C324.952 186.346 324.822 187.115 324.691 187.844C324.587 188.573 324.522 189.159 324.496 189.602C324.47 190.253 324.587 190.721 324.848 191.008C325.108 191.294 325.395 191.438 325.707 191.438C326.072 191.438 326.514 191.255 327.035 190.891C327.582 190.526 328.155 190.07 328.754 189.523C329.353 188.977 329.952 188.378 330.551 187.727C331.15 187.076 331.697 186.464 332.191 185.891C332.712 185.292 333.142 184.771 333.48 184.328C333.845 183.885 334.092 183.599 334.223 183.469C334.379 183.312 334.535 183.221 334.691 183.195C334.874 183.169 335.017 183.195 335.121 183.273C335.225 183.352 335.277 183.495 335.277 183.703C335.277 183.911 335.173 184.172 334.965 184.484C334.652 184.979 334.249 185.565 333.754 186.242C333.259 186.893 332.712 187.57 332.113 188.273C331.514 188.977 330.876 189.667 330.199 190.344C329.548 191.021 328.884 191.62 328.207 192.141C327.556 192.661 326.918 193.078 326.293 193.391C325.694 193.729 325.147 193.898 324.652 193.898C324.288 193.898 323.936 193.794 323.598 193.586C323.285 193.378 322.999 193.104 322.738 192.766C322.478 192.427 322.27 192.049 322.113 191.633C321.983 191.216 321.931 190.799 321.957 190.383C321.983 190.201 322.022 189.888 322.074 189.445C320.98 190.669 319.874 191.646 318.754 192.375C317.66 193.078 316.605 193.43 315.59 193.43C315.225 193.43 314.835 193.339 314.418 193.156C314.001 192.974 313.624 192.674 313.285 192.258C312.973 191.841 312.712 191.294 312.504 190.617C312.296 189.94 312.217 189.12 312.27 188.156C312.348 186.646 312.647 185.214 313.168 183.859C313.689 182.505 314.34 181.333 315.121 180.344C315.928 179.328 316.827 178.534 317.816 177.961C318.832 177.362 319.848 177.062 320.863 177.062C321.306 177.062 321.71 177.18 322.074 177.414C322.439 177.622 322.751 177.909 323.012 178.273C323.272 178.612 323.48 178.99 323.637 179.406C323.819 179.823 323.949 180.214 324.027 180.578C324.21 179.823 324.379 179.081 324.535 178.352C324.691 177.622 324.848 176.932 325.004 176.281C325.264 175.318 325.538 174.276 325.824 173.156C326.085 172.193 326.384 171.086 326.723 169.836C327.061 168.586 327.439 167.271 327.855 165.891C328.116 165.682 328.363 165.526 328.598 165.422C328.832 165.318 329.053 165.24 329.262 165.188C329.496 165.109 329.717 165.07 329.926 165.07C330.186 165.07 330.421 165.109 330.629 165.188C330.837 165.24 331.007 165.409 331.137 165.695C331.293 165.956 331.397 166.359 331.449 166.906C331.501 167.453 331.501 168.195 331.449 169.133C331.397 170.279 331.189 171.529 330.824 172.883C330.486 174.237 330.03 175.643 329.457 177.102C328.884 178.534 328.22 179.979 327.465 181.438C326.736 182.87 325.941 184.237 325.082 185.539ZM322.777 186.047C322.882 185.552 322.973 185.057 323.051 184.562C323.155 184.068 323.272 183.56 323.402 183.039C323.35 183.065 323.298 183.091 323.246 183.117C323.22 183.143 323.181 183.169 323.129 183.195C322.842 183.326 322.647 183.326 322.543 183.195C322.439 183.039 322.387 182.805 322.387 182.492C322.387 182.336 322.374 182.062 322.348 181.672C322.322 181.255 322.243 180.839 322.113 180.422C322.009 179.979 321.84 179.602 321.605 179.289C321.371 178.951 321.046 178.781 320.629 178.781C320.03 178.781 319.418 179.094 318.793 179.719C318.168 180.318 317.582 181.06 317.035 181.945C316.488 182.805 316.033 183.729 315.668 184.719C315.303 185.708 315.095 186.594 315.043 187.375C314.991 188.625 315.147 189.523 315.512 190.07C315.876 190.617 316.371 190.891 316.996 190.891C317.465 190.891 317.973 190.708 318.52 190.344C319.092 189.979 319.639 189.536 320.16 189.016C320.707 188.495 321.202 187.961 321.645 187.414C322.113 186.867 322.491 186.411 322.777 186.047ZM347.559 186.789C347.298 187.779 346.947 188.703 346.504 189.562C346.061 190.422 345.527 191.164 344.902 191.789C344.303 192.414 343.613 192.896 342.832 193.234C342.077 193.599 341.243 193.781 340.332 193.781C339.264 193.781 338.418 193.547 337.793 193.078C337.194 192.635 336.738 192.076 336.426 191.398C336.139 190.721 335.97 189.979 335.918 189.172C335.84 188.365 335.801 187.609 335.801 186.906C335.801 186.411 335.866 185.865 335.996 185.266C336.1 184.667 336.257 184.055 336.465 183.43C336.673 182.805 336.934 182.18 337.246 181.555C337.585 180.93 337.975 180.357 338.418 179.836C338.574 179.393 338.809 179.003 339.121 178.664C339.46 178.326 339.837 178.052 340.254 177.844C340.697 177.609 341.165 177.44 341.66 177.336C342.155 177.206 342.637 177.141 343.105 177.141C343.184 177.141 343.249 177.154 343.301 177.18C343.379 177.206 343.457 177.232 343.535 177.258C343.874 177.284 344.29 177.414 344.785 177.648C345.306 177.883 345.801 178.234 346.27 178.703C346.764 179.172 347.181 179.771 347.52 180.5C347.858 181.203 348.027 182.062 348.027 183.078C348.027 183.286 348.014 183.547 347.988 183.859C347.962 184.146 347.936 184.393 347.91 184.602C348.509 184.367 349.134 184.081 349.785 183.742C350.436 183.404 351.061 183.052 351.66 182.688C352.285 182.297 352.858 181.906 353.379 181.516C353.9 181.125 354.316 180.773 354.629 180.461C354.889 180.227 355.111 180.096 355.293 180.07C355.475 180.044 355.605 180.096 355.684 180.227C355.762 180.357 355.775 180.539 355.723 180.773C355.671 181.008 355.527 181.268 355.293 181.555C355.163 181.711 354.824 182.023 354.277 182.492C353.757 182.961 353.132 183.469 352.402 184.016C351.673 184.562 350.879 185.096 350.02 185.617C349.16 186.138 348.34 186.529 347.559 186.789ZM340.957 180.852C340.879 181.086 340.84 181.333 340.84 181.594C340.84 182.01 340.866 182.453 340.918 182.922C340.97 183.365 341.1 183.768 341.309 184.133C341.517 184.497 341.842 184.81 342.285 185.07C342.754 185.305 343.392 185.422 344.199 185.422C344.329 185.422 344.46 185.422 344.59 185.422C344.72 185.396 344.85 185.37 344.98 185.344C345.059 185.005 345.124 184.706 345.176 184.445C345.254 184.159 345.293 183.911 345.293 183.703C345.345 183.208 345.345 182.701 345.293 182.18C345.241 181.659 345.137 181.19 344.98 180.773C344.85 180.331 344.668 179.979 344.434 179.719C344.225 179.432 343.965 179.289 343.652 179.289C343.158 179.289 342.676 179.432 342.207 179.719C341.764 179.979 341.348 180.357 340.957 180.852ZM338.457 187.727C338.457 188.195 338.483 188.664 338.535 189.133C338.587 189.576 338.691 189.979 338.848 190.344C339.004 190.682 339.212 190.969 339.473 191.203C339.733 191.411 340.072 191.516 340.488 191.516C340.957 191.516 341.387 191.411 341.777 191.203C342.168 190.969 342.52 190.682 342.832 190.344C343.145 189.979 343.418 189.576 343.652 189.133C343.913 188.664 344.134 188.182 344.316 187.688C344.134 187.714 343.952 187.74 343.77 187.766C343.613 187.766 343.431 187.766 343.223 187.766C342.233 187.766 341.374 187.479 340.645 186.906C339.941 186.307 339.395 185.552 339.004 184.641C338.848 185.188 338.717 185.721 338.613 186.242C338.509 186.763 338.457 187.258 338.457 187.727ZM354.254 192.805C354.072 193.091 353.876 193.273 353.668 193.352C353.434 193.456 353.238 193.469 353.082 193.391C352.9 193.339 352.783 193.208 352.73 193C352.678 192.792 352.73 192.531 352.887 192.219C352.965 192.062 353.147 191.711 353.434 191.164C353.694 190.617 354.02 189.966 354.41 189.211C354.775 188.43 355.178 187.596 355.621 186.711C356.064 185.799 356.48 184.94 356.871 184.133C357.288 183.326 357.665 182.609 358.004 181.984C358.342 181.333 358.59 180.865 358.746 180.578C358.46 180.318 358.264 180.135 358.16 180.031C358.056 179.901 357.978 179.641 357.926 179.25C357.874 178.911 357.952 178.469 358.16 177.922C358.368 177.375 358.642 176.854 358.98 176.359C359.319 175.839 359.697 175.396 360.113 175.031C360.53 174.667 360.934 174.484 361.324 174.484C362.053 174.484 362.561 174.719 362.848 175.188C363.16 175.656 363.342 176.138 363.395 176.633C363.447 176.971 363.421 177.401 363.316 177.922C363.212 178.443 363.017 178.911 362.73 179.328C362.809 179.38 362.913 179.445 363.043 179.523C363.173 179.576 363.382 179.602 363.668 179.602C364.085 179.602 364.371 179.576 364.527 179.523C364.71 179.471 364.983 179.445 365.348 179.445C365.79 179.445 366.155 179.562 366.441 179.797C366.728 180.005 366.962 180.279 367.145 180.617C367.327 180.93 367.457 181.281 367.535 181.672C367.639 182.036 367.704 182.375 367.73 182.688C367.809 183.339 367.639 184.016 367.223 184.719C366.806 185.422 366.298 186.19 365.699 187.023C365.335 187.544 364.97 188.13 364.605 188.781C364.241 189.432 364.085 190.018 364.137 190.539C364.189 190.878 364.28 191.151 364.41 191.359C364.54 191.568 364.905 191.672 365.504 191.672C365.947 191.672 366.428 191.516 366.949 191.203C367.496 190.865 368.043 190.448 368.59 189.953C369.163 189.432 369.723 188.872 370.27 188.273C370.816 187.648 371.324 187.049 371.793 186.477C372.262 185.878 372.652 185.344 372.965 184.875C373.303 184.406 373.551 184.068 373.707 183.859C373.837 183.651 374.007 183.508 374.215 183.43C374.423 183.352 374.605 183.352 374.762 183.43C374.918 183.508 375.009 183.664 375.035 183.898C375.087 184.133 374.996 184.445 374.762 184.836C374.605 185.096 374.332 185.513 373.941 186.086C373.577 186.659 373.121 187.297 372.574 188C372.053 188.703 371.467 189.432 370.816 190.188C370.165 190.917 369.475 191.594 368.746 192.219C368.043 192.818 367.327 193.312 366.598 193.703C365.895 194.094 365.217 194.289 364.566 194.289C363.889 194.289 363.329 194.159 362.887 193.898C362.444 193.638 362.079 193.326 361.793 192.961C361.533 192.57 361.337 192.154 361.207 191.711C361.103 191.242 361.064 190.812 361.09 190.422C361.116 190.109 361.194 189.784 361.324 189.445C361.48 189.081 361.65 188.716 361.832 188.352C362.04 187.961 362.249 187.583 362.457 187.219C362.691 186.828 362.9 186.451 363.082 186.086C363.525 185.331 363.876 184.693 364.137 184.172C364.423 183.625 364.566 183.169 364.566 182.805C364.566 182.57 364.514 182.362 364.41 182.18C364.306 181.997 364.137 181.906 363.902 181.906C363.746 181.906 363.629 181.919 363.551 181.945C363.499 181.945 363.434 181.945 363.355 181.945C363.303 181.945 363.212 181.958 363.082 181.984C362.978 181.984 362.809 181.984 362.574 181.984C362.236 181.984 361.949 181.932 361.715 181.828C361.48 181.724 361.259 181.646 361.051 181.594C360.947 181.776 360.712 182.167 360.348 182.766C359.983 183.365 359.553 184.068 359.059 184.875C358.59 185.682 358.082 186.529 357.535 187.414C357.014 188.299 356.52 189.133 356.051 189.914C355.582 190.669 355.191 191.32 354.879 191.867C354.54 192.388 354.332 192.701 354.254 192.805ZM393.684 184.875C392.902 186.021 392.017 187.141 391.027 188.234C390.038 189.302 388.983 190.266 387.863 191.125C386.77 191.958 385.637 192.635 384.465 193.156C383.319 193.677 382.199 193.938 381.105 193.938C380.533 193.938 379.908 193.794 379.23 193.508C378.579 193.247 377.98 192.831 377.434 192.258C376.887 191.685 376.444 190.943 376.105 190.031C375.793 189.12 375.702 188.013 375.832 186.711C375.936 185.643 376.262 184.523 376.809 183.352C377.382 182.154 378.072 181.06 378.879 180.07C379.712 179.081 380.637 178.26 381.652 177.609C382.694 176.958 383.736 176.633 384.777 176.633C385.767 176.633 386.483 176.88 386.926 177.375C387.368 177.87 387.564 178.482 387.512 179.211C387.434 180.018 387.199 180.76 386.809 181.438C386.444 182.115 386.001 182.727 385.48 183.273C384.96 183.82 384.4 184.315 383.801 184.758C383.228 185.201 382.681 185.604 382.16 185.969C381.587 186.359 381.04 186.737 380.52 187.102C379.999 187.44 379.543 187.753 379.152 188.039C379.178 188.69 379.296 189.237 379.504 189.68C379.712 190.122 379.973 190.487 380.285 190.773C380.598 191.034 380.949 191.229 381.34 191.359C381.757 191.464 382.173 191.516 382.59 191.516C383.475 191.516 384.4 191.242 385.363 190.695C386.327 190.122 387.264 189.445 388.176 188.664C389.113 187.857 389.973 187.023 390.754 186.164C391.561 185.305 392.225 184.562 392.746 183.938C392.928 183.729 393.111 183.612 393.293 183.586C393.501 183.534 393.658 183.56 393.762 183.664C393.892 183.742 393.957 183.898 393.957 184.133C393.957 184.341 393.866 184.589 393.684 184.875ZM383.684 178.859C383.371 178.859 382.993 179.016 382.551 179.328C382.134 179.641 381.717 180.096 381.301 180.695C380.884 181.268 380.493 181.984 380.129 182.844C379.764 183.677 379.491 184.641 379.309 185.734C379.621 185.5 379.96 185.266 380.324 185.031C380.689 184.771 381.053 184.497 381.418 184.211C382.538 183.352 383.319 182.596 383.762 181.945C384.204 181.294 384.452 180.734 384.504 180.266C384.556 179.771 384.504 179.419 384.348 179.211C384.191 178.977 383.97 178.859 383.684 178.859ZM400.379 191.672C400.535 191.776 400.73 191.828 400.965 191.828C401.225 191.828 401.473 191.776 401.707 191.672C401.967 191.568 402.202 191.424 402.41 191.242C402.645 191.06 402.814 190.826 402.918 190.539C403.022 190.253 403.022 189.849 402.918 189.328C402.814 188.781 402.645 188.208 402.41 187.609C402.202 186.984 401.967 186.359 401.707 185.734C401.447 185.109 401.225 184.536 401.043 184.016C400.887 183.625 400.757 183.26 400.652 182.922C400.548 182.635 400.444 182.362 400.34 182.102C400.262 181.815 400.197 181.62 400.145 181.516C400.014 181.724 399.78 182.062 399.441 182.531C399.129 183 398.777 183.495 398.387 184.016C398.022 184.51 397.671 184.979 397.332 185.422C396.993 185.839 396.759 186.125 396.629 186.281C396.421 186.516 396.212 186.659 396.004 186.711C395.822 186.737 395.665 186.698 395.535 186.594C395.405 186.464 395.327 186.294 395.301 186.086C395.301 185.852 395.405 185.578 395.613 185.266C395.77 185.057 396.004 184.732 396.316 184.289C396.629 183.82 396.941 183.352 397.254 182.883C397.566 182.388 397.853 181.958 398.113 181.594C398.374 181.203 398.517 180.969 398.543 180.891C398.595 180.682 398.517 180.409 398.309 180.07C398.126 179.732 398.1 179.341 398.23 178.898C398.335 178.534 398.569 178.117 398.934 177.648C399.298 177.154 399.728 176.711 400.223 176.32C400.717 175.93 401.225 175.643 401.746 175.461C402.267 175.253 402.736 175.253 403.152 175.461C403.491 175.669 403.764 175.904 403.973 176.164C404.181 176.398 404.259 176.646 404.207 176.906C404.155 177.036 404.077 177.206 403.973 177.414C403.868 177.622 403.712 177.883 403.504 178.195C403.296 178.482 402.996 178.859 402.605 179.328C402.684 179.927 402.788 180.474 402.918 180.969C403.074 181.464 403.217 181.893 403.348 182.258C403.504 182.701 403.673 183.104 403.855 183.469C404.09 183.938 404.337 184.419 404.598 184.914C404.858 185.409 405.092 185.904 405.301 186.398C405.509 186.867 405.678 187.31 405.809 187.727C405.939 188.143 405.978 188.495 405.926 188.781C405.848 189.224 405.613 189.758 405.223 190.383C404.858 191.008 404.389 191.62 403.816 192.219C403.27 192.792 402.632 193.286 401.902 193.703C401.199 194.12 400.457 194.328 399.676 194.328C399.129 194.328 398.595 194.159 398.074 193.82C397.579 193.482 397.15 193.091 396.785 192.648C396.447 192.18 396.186 191.724 396.004 191.281C395.848 190.839 395.835 190.5 395.965 190.266C396.121 189.953 396.264 189.706 396.395 189.523C396.525 189.341 396.72 189.133 396.98 188.898C397.085 188.82 397.215 188.729 397.371 188.625C397.501 188.547 397.684 188.469 397.918 188.391C398.152 188.312 398.426 188.221 398.738 188.117C398.999 188.924 399.233 189.562 399.441 190.031C399.65 190.474 399.819 190.826 399.949 191.086C400.105 191.372 400.249 191.568 400.379 191.672Z" fill="black"/>
<path d="M136.297 143.031C136.883 142.51 137.436 142.217 137.957 142.152C138.478 142.087 138.868 142.217 139.129 142.543C139.454 142.803 139.552 143.227 139.422 143.812C139.357 144.333 138.966 144.984 138.25 145.766C136.753 147.263 135.125 148.891 133.367 150.648C131.609 152.341 129.624 153.969 127.41 155.531C127.931 156.508 128.517 157.387 129.168 158.168C129.689 158.884 130.307 159.6 131.023 160.316C131.74 160.967 132.553 161.456 133.465 161.781C133.335 162.042 133.042 162.302 132.586 162.562C132.13 162.823 131.642 163.116 131.121 163.441C130.535 163.767 129.884 164.125 129.168 164.516C127.41 165.362 125.945 165.818 124.773 165.883C123.602 165.948 122.625 165.785 121.844 165.395C121.062 165.004 120.444 164.418 119.988 163.637C119.598 162.855 119.272 162.042 119.012 161.195C118.947 161.13 118.914 160.967 118.914 160.707C118.914 160.577 118.882 160.479 118.816 160.414C116.733 161.26 114.552 161.944 112.273 162.465C109.995 162.986 107.618 163.246 105.145 163.246C102.02 163.246 99.4805 162.628 97.5273 161.391C95.6393 160.154 94.2396 158.624 93.3281 156.801C92.3516 154.978 91.7656 153.025 91.5703 150.941C91.375 148.793 91.4401 146.84 91.7656 145.082C92.3516 141.436 94.207 137.53 97.332 133.363C100.522 129.197 104.754 124.542 110.027 119.398C110.353 119.073 110.711 118.747 111.102 118.422C111.492 118.096 111.85 117.771 112.176 117.445C112.176 115.688 112.208 114.027 112.273 112.465C112.404 110.837 112.534 109.275 112.664 107.777C112.729 107.191 112.794 106.638 112.859 106.117C112.924 105.531 113.022 104.945 113.152 104.359C113.803 101.039 114.845 98.2721 116.277 96.0586C117.71 93.7799 119.272 91.957 120.965 90.5898C122.723 89.1576 124.415 88.1484 126.043 87.5625C127.736 86.9766 129.168 86.6836 130.34 86.6836C131.121 86.6836 131.967 86.8138 132.879 87.0742C133.855 87.3346 134.702 87.7904 135.418 88.4414C136.199 89.0924 136.785 89.9714 137.176 91.0781C137.566 92.1849 137.632 93.5846 137.371 95.2773C137.111 96.7096 136.688 98.1094 136.102 99.4766C135.581 100.844 134.734 102.374 133.562 104.066C132.456 105.694 130.926 107.582 128.973 109.73C127.085 111.879 124.676 114.451 121.746 117.445C121.486 117.706 121.225 117.934 120.965 118.129C120.77 118.324 120.574 118.552 120.379 118.812C120.704 124.802 121.388 130.564 122.43 136.098C123.536 141.632 124.578 146.384 125.555 150.355C125.685 150.876 125.783 151.234 125.848 151.43C127.215 150.583 128.484 149.737 129.656 148.891C130.828 147.979 131.837 147.133 132.684 146.352C133.595 145.57 134.344 144.887 134.93 144.301C135.581 143.715 136.036 143.292 136.297 143.031ZM109.246 156.605C110.678 156.605 112.046 156.508 113.348 156.312C114.65 156.052 115.952 155.759 117.254 155.434C116.668 153.48 116.017 151.072 115.301 148.207C114.65 145.342 114.064 142.12 113.543 138.539C113.283 136.651 113.055 134.763 112.859 132.875C112.729 130.987 112.599 129.132 112.469 127.309C104.982 135.707 100.848 142.185 100.066 146.742C99.9362 147.654 99.9362 148.695 100.066 149.867C100.197 150.974 100.587 152.048 101.238 153.09C101.889 154.066 102.833 154.913 104.07 155.629C105.372 156.28 107.098 156.605 109.246 156.605ZM121.062 99.7695C120.607 102.96 120.314 106.312 120.184 109.828C123.309 106.768 125.978 104.034 128.191 101.625C130.405 99.2161 131.674 97.0677 132 95.1797C132.13 94.2682 132 93.3893 131.609 92.543C131.284 91.6315 130.633 91.1758 129.656 91.1758C128.615 91.1758 127.605 91.4362 126.629 91.957C125.652 92.4779 124.773 93.1615 123.992 94.0078C123.276 94.7891 122.658 95.7005 122.137 96.7422C121.616 97.7188 121.258 98.7279 121.062 99.7695Z" fill="black"/>
<path d="M185.955 172.164C182.7 172.164 179.738 171.383 177.068 169.82C174.464 168.258 172.218 166.109 170.33 163.375C168.507 160.641 167.107 157.451 166.131 153.805C165.219 150.094 164.829 146.155 164.959 141.988C165.089 138.082 165.577 133.85 166.424 129.293C167.335 124.736 168.605 120.178 170.232 115.621C171.86 110.999 173.813 106.572 176.092 102.34C178.436 98.043 181.105 94.2669 184.1 91.0117C187.094 87.7565 190.415 85.1523 194.061 83.1992C197.706 81.181 201.71 80.1719 206.072 80.1719C208.742 80.1719 210.988 80.7253 212.811 81.832C214.699 82.8737 216.196 84.2734 217.303 86.0312C218.475 87.7891 219.288 89.7747 219.744 91.9883C220.2 94.2018 220.395 96.4479 220.33 98.7266C220.2 100.875 219.874 102.958 219.354 104.977C218.898 106.995 218.214 108.818 217.303 110.445C216.456 112.008 215.382 113.277 214.08 114.254C212.843 115.165 211.411 115.621 209.783 115.621C209.002 115.556 208.253 115.296 207.537 114.84C206.886 114.449 206.202 113.863 205.486 113.082C204.835 112.301 204.217 111.161 203.631 109.664C205.389 108.948 206.756 107.711 207.732 105.953C208.774 104.13 209.555 102.242 210.076 100.289C210.662 98.0755 211.053 95.6016 211.248 92.8672C211.378 90.1979 210.825 88.2448 209.588 87.0078C208.351 85.7708 206.951 85.1523 205.389 85.1523C202.329 85.1523 199.106 86.7474 195.721 89.9375C192.335 93.1276 189.178 97.457 186.248 102.926C183.383 108.329 180.942 114.645 178.924 121.871C176.971 129.098 175.831 136.747 175.506 144.82C175.376 148.466 175.604 151.559 176.189 154.098C176.84 156.637 177.719 158.72 178.826 160.348C179.998 161.975 181.3 163.147 182.732 163.863C184.165 164.579 185.597 164.938 187.029 164.938C189.308 164.938 191.456 164.449 193.475 163.473C195.493 162.496 197.316 161.292 198.943 159.859C200.636 158.427 202.068 156.93 203.24 155.367C204.477 153.87 205.421 152.535 206.072 151.363C206.528 150.517 207.016 149.996 207.537 149.801C208.058 149.605 208.514 149.671 208.904 149.996C209.295 150.257 209.555 150.712 209.686 151.363C209.816 151.949 209.686 152.665 209.295 153.512C208.188 155.725 206.821 157.939 205.193 160.152C203.631 162.366 201.84 164.352 199.822 166.109C197.869 167.932 195.721 169.397 193.377 170.504C191.033 171.611 188.559 172.164 185.955 172.164ZM248.748 138.473C248.097 140.947 247.218 143.258 246.111 145.406C245.005 147.555 243.67 149.41 242.107 150.973C240.61 152.535 238.885 153.74 236.932 154.586C235.044 155.497 232.96 155.953 230.682 155.953C228.012 155.953 225.896 155.367 224.334 154.195C222.837 153.089 221.697 151.689 220.916 149.996C220.2 148.303 219.777 146.448 219.646 144.43C219.451 142.411 219.354 140.523 219.354 138.766C219.354 137.529 219.516 136.161 219.842 134.664C220.102 133.167 220.493 131.637 221.014 130.074C221.535 128.512 222.186 126.949 222.967 125.387C223.813 123.824 224.79 122.392 225.896 121.09C226.287 119.983 226.873 119.007 227.654 118.16C228.501 117.314 229.445 116.63 230.486 116.109C231.593 115.523 232.765 115.1 234.002 114.84C235.239 114.514 236.443 114.352 237.615 114.352C237.811 114.352 237.973 114.384 238.104 114.449C238.299 114.514 238.494 114.579 238.689 114.645C239.536 114.71 240.577 115.035 241.814 115.621C243.117 116.207 244.354 117.086 245.525 118.258C246.762 119.43 247.804 120.927 248.65 122.75C249.497 124.508 249.92 126.656 249.92 129.195C249.92 129.716 249.887 130.367 249.822 131.148C249.757 131.865 249.692 132.483 249.627 133.004C251.124 132.418 252.687 131.702 254.314 130.855C255.942 130.009 257.505 129.13 259.002 128.219C260.564 127.242 261.997 126.266 263.299 125.289C264.601 124.312 265.643 123.434 266.424 122.652C267.075 122.066 267.628 121.741 268.084 121.676C268.54 121.611 268.865 121.741 269.061 122.066C269.256 122.392 269.288 122.848 269.158 123.434C269.028 124.02 268.67 124.671 268.084 125.387C267.758 125.777 266.912 126.559 265.545 127.73C264.243 128.902 262.68 130.172 260.857 131.539C259.035 132.906 257.049 134.241 254.9 135.543C252.752 136.845 250.701 137.822 248.748 138.473ZM232.244 123.629C232.049 124.215 231.951 124.833 231.951 125.484C231.951 126.526 232.016 127.633 232.146 128.805C232.277 129.911 232.602 130.921 233.123 131.832C233.644 132.743 234.458 133.525 235.564 134.176C236.736 134.762 238.331 135.055 240.35 135.055C240.675 135.055 241.001 135.055 241.326 135.055C241.652 134.99 241.977 134.924 242.303 134.859C242.498 134.013 242.661 133.264 242.791 132.613C242.986 131.897 243.084 131.279 243.084 130.758C243.214 129.521 243.214 128.251 243.084 126.949C242.954 125.647 242.693 124.475 242.303 123.434C241.977 122.327 241.521 121.448 240.936 120.797C240.415 120.081 239.764 119.723 238.982 119.723C237.745 119.723 236.541 120.081 235.369 120.797C234.262 121.448 233.221 122.392 232.244 123.629ZM225.994 140.816C225.994 141.988 226.059 143.16 226.189 144.332C226.32 145.439 226.58 146.448 226.971 147.359C227.361 148.206 227.882 148.922 228.533 149.508C229.184 150.029 230.031 150.289 231.072 150.289C232.244 150.289 233.318 150.029 234.295 149.508C235.271 148.922 236.15 148.206 236.932 147.359C237.713 146.448 238.396 145.439 238.982 144.332C239.633 143.16 240.187 141.956 240.643 140.719C240.187 140.784 239.731 140.849 239.275 140.914C238.885 140.914 238.429 140.914 237.908 140.914C235.434 140.914 233.286 140.198 231.463 138.766C229.705 137.268 228.338 135.38 227.361 133.102C226.971 134.469 226.645 135.803 226.385 137.105C226.124 138.408 225.994 139.645 225.994 140.816ZM272.967 150.68C273.357 150.94 273.846 151.07 274.432 151.07C275.083 151.07 275.701 150.94 276.287 150.68C276.938 150.419 277.524 150.061 278.045 149.605C278.631 149.15 279.054 148.564 279.314 147.848C279.575 147.132 279.575 146.122 279.314 144.82C279.054 143.453 278.631 142.021 278.045 140.523C277.524 138.961 276.938 137.398 276.287 135.836C275.636 134.273 275.083 132.841 274.627 131.539C274.236 130.562 273.911 129.651 273.65 128.805C273.39 128.089 273.13 127.405 272.869 126.754C272.674 126.038 272.511 125.549 272.381 125.289C272.055 125.81 271.469 126.656 270.623 127.828C269.842 129 268.963 130.237 267.986 131.539C267.075 132.776 266.196 133.948 265.35 135.055C264.503 136.096 263.917 136.812 263.592 137.203C263.071 137.789 262.55 138.147 262.029 138.277C261.574 138.342 261.183 138.245 260.857 137.984C260.532 137.659 260.337 137.236 260.271 136.715C260.271 136.129 260.532 135.445 261.053 134.664C261.443 134.143 262.029 133.329 262.811 132.223C263.592 131.051 264.373 129.879 265.154 128.707C265.936 127.47 266.652 126.396 267.303 125.484C267.954 124.508 268.312 123.922 268.377 123.727C268.507 123.206 268.312 122.522 267.791 121.676C267.335 120.829 267.27 119.853 267.596 118.746C267.856 117.835 268.442 116.793 269.354 115.621C270.265 114.384 271.339 113.277 272.576 112.301C273.813 111.324 275.083 110.608 276.385 110.152C277.687 109.632 278.859 109.632 279.9 110.152C280.747 110.673 281.43 111.259 281.951 111.91C282.472 112.496 282.667 113.115 282.537 113.766C282.407 114.091 282.212 114.514 281.951 115.035C281.691 115.556 281.3 116.207 280.779 116.988C280.258 117.704 279.51 118.648 278.533 119.82C278.729 121.318 278.989 122.685 279.314 123.922C279.705 125.159 280.063 126.233 280.389 127.145C280.779 128.251 281.202 129.26 281.658 130.172C282.244 131.344 282.863 132.548 283.514 133.785C284.165 135.022 284.751 136.259 285.271 137.496C285.792 138.668 286.215 139.775 286.541 140.816C286.867 141.858 286.964 142.737 286.834 143.453C286.639 144.56 286.053 145.895 285.076 147.457C284.165 149.02 282.993 150.549 281.561 152.047C280.193 153.479 278.598 154.716 276.775 155.758C275.018 156.799 273.162 157.32 271.209 157.32C269.842 157.32 268.507 156.897 267.205 156.051C265.968 155.204 264.894 154.228 263.982 153.121C263.136 151.949 262.485 150.81 262.029 149.703C261.639 148.596 261.606 147.75 261.932 147.164C262.322 146.383 262.68 145.764 263.006 145.309C263.331 144.853 263.82 144.332 264.471 143.746C264.731 143.551 265.057 143.323 265.447 143.062C265.773 142.867 266.229 142.672 266.814 142.477C267.4 142.281 268.084 142.053 268.865 141.793C269.516 143.811 270.102 145.406 270.623 146.578C271.144 147.685 271.567 148.564 271.893 149.215C272.283 149.931 272.641 150.419 272.967 150.68ZM330.389 129.293C330.649 128.902 330.975 128.674 331.365 128.609C331.821 128.479 332.179 128.512 332.439 128.707C332.7 128.902 332.83 129.228 332.83 129.684C332.895 130.139 332.732 130.758 332.342 131.539C331.04 134.013 329.314 136.682 327.166 139.547C325.083 142.411 322.869 145.113 320.525 147.652C318.182 150.126 315.903 152.177 313.689 153.805C311.476 155.432 309.62 156.246 308.123 156.246C305.975 156.246 304.184 155.823 302.752 154.977C301.32 154.13 300.18 153.089 299.334 151.852C298.553 150.615 297.999 149.28 297.674 147.848C297.348 146.35 297.251 144.983 297.381 143.746C297.446 142.704 297.674 140.849 298.064 138.18C298.455 135.445 298.976 132.32 299.627 128.805C300.278 125.224 300.994 121.415 301.775 117.379C302.622 113.277 303.501 109.339 304.412 105.562C303.305 105.693 302.199 105.823 301.092 105.953C299.985 106.083 298.976 106.148 298.064 106.148C295.981 106.148 294.028 105.921 292.205 105.465C290.317 104.944 288.917 104.456 288.006 104C287.485 103.74 287.257 103.382 287.322 102.926C287.387 102.405 287.583 101.917 287.908 101.461C288.234 100.94 288.657 100.517 289.178 100.191C289.633 99.8008 290.057 99.6055 290.447 99.6055C291.684 99.7357 293.019 99.8659 294.451 99.9961C295.883 100.061 297.446 100.061 299.139 99.9961C300.376 99.931 301.548 99.8333 302.654 99.7031C303.826 99.5729 304.965 99.4102 306.072 99.2148C306.919 96.0898 307.732 93.388 308.514 91.1094C309.36 88.7656 310.109 87.138 310.76 86.2266C310.955 85.901 311.378 85.6406 312.029 85.4453C312.745 85.1849 313.494 85.0221 314.275 84.957C315.057 84.8268 315.805 84.8268 316.521 84.957C317.238 85.0221 317.758 85.25 318.084 85.6406C318.41 86.1615 318.54 87.4961 318.475 89.6445C318.41 91.793 318.051 94.5273 317.4 97.8477C320.135 97.8477 322.544 98.0104 324.627 98.3359C326.775 98.5964 328.598 98.9219 330.096 99.3125C331.593 99.638 332.798 99.9961 333.709 100.387C334.62 100.712 335.304 100.94 335.76 101.07C336.215 101.201 336.443 101.526 336.443 102.047C336.508 102.568 336.411 103.121 336.15 103.707C335.955 104.228 335.597 104.684 335.076 105.074C334.555 105.465 333.969 105.595 333.318 105.465C332.667 105.4 331.919 105.27 331.072 105.074C330.291 104.879 329.314 104.716 328.143 104.586C327.036 104.456 325.701 104.326 324.139 104.195C322.576 104.065 320.753 104 318.67 104C318.279 104 317.824 104.033 317.303 104.098C316.847 104.098 316.359 104.098 315.838 104.098C315.577 105.139 315.317 106.181 315.057 107.223C314.861 108.199 314.568 109.241 314.178 110.348C313.331 112.952 312.355 115.784 311.248 118.844C310.271 121.513 309.1 124.573 307.732 128.023C306.365 131.474 304.835 135.152 303.143 139.059C302.752 141.858 302.785 144.007 303.24 145.504C303.761 146.936 304.38 147.978 305.096 148.629C305.942 149.345 306.984 149.736 308.221 149.801C309.197 149.931 310.369 149.605 311.736 148.824C313.169 147.978 314.633 146.871 316.131 145.504C317.628 144.137 319.126 142.639 320.623 141.012C322.186 139.384 323.618 137.789 324.92 136.227C326.222 134.664 327.361 133.264 328.338 132.027C329.314 130.725 329.998 129.814 330.389 129.293ZM353.436 138.473C352.785 140.947 351.906 143.258 350.799 145.406C349.692 147.555 348.357 149.41 346.795 150.973C345.298 152.535 343.572 153.74 341.619 154.586C339.731 155.497 337.648 155.953 335.369 155.953C332.7 155.953 330.584 155.367 329.021 154.195C327.524 153.089 326.385 151.689 325.604 149.996C324.887 148.303 324.464 146.448 324.334 144.43C324.139 142.411 324.041 140.523 324.041 138.766C324.041 137.529 324.204 136.161 324.529 134.664C324.79 133.167 325.18 131.637 325.701 130.074C326.222 128.512 326.873 126.949 327.654 125.387C328.501 123.824 329.477 122.392 330.584 121.09C330.975 119.983 331.561 119.007 332.342 118.16C333.188 117.314 334.132 116.63 335.174 116.109C336.281 115.523 337.452 115.1 338.689 114.84C339.926 114.514 341.131 114.352 342.303 114.352C342.498 114.352 342.661 114.384 342.791 114.449C342.986 114.514 343.182 114.579 343.377 114.645C344.223 114.71 345.265 115.035 346.502 115.621C347.804 116.207 349.041 117.086 350.213 118.258C351.45 119.43 352.492 120.927 353.338 122.75C354.184 124.508 354.607 126.656 354.607 129.195C354.607 129.716 354.575 130.367 354.51 131.148C354.445 131.865 354.38 132.483 354.314 133.004C355.812 132.418 357.374 131.702 359.002 130.855C360.63 130.009 362.192 129.13 363.689 128.219C365.252 127.242 366.684 126.266 367.986 125.289C369.288 124.312 370.33 123.434 371.111 122.652C371.762 122.066 372.316 121.741 372.771 121.676C373.227 121.611 373.553 121.741 373.748 122.066C373.943 122.392 373.976 122.848 373.846 123.434C373.715 124.02 373.357 124.671 372.771 125.387C372.446 125.777 371.6 126.559 370.232 127.73C368.93 128.902 367.368 130.172 365.545 131.539C363.722 132.906 361.736 134.241 359.588 135.543C357.439 136.845 355.389 137.822 353.436 138.473ZM336.932 123.629C336.736 124.215 336.639 124.833 336.639 125.484C336.639 126.526 336.704 127.633 336.834 128.805C336.964 129.911 337.29 130.921 337.811 131.832C338.331 132.743 339.145 133.525 340.252 134.176C341.424 134.762 343.019 135.055 345.037 135.055C345.363 135.055 345.688 135.055 346.014 135.055C346.339 134.99 346.665 134.924 346.99 134.859C347.186 134.013 347.348 133.264 347.479 132.613C347.674 131.897 347.771 131.279 347.771 130.758C347.902 129.521 347.902 128.251 347.771 126.949C347.641 125.647 347.381 124.475 346.99 123.434C346.665 122.327 346.209 121.448 345.623 120.797C345.102 120.081 344.451 119.723 343.67 119.723C342.433 119.723 341.229 120.081 340.057 120.797C338.95 121.448 337.908 122.392 336.932 123.629ZM330.682 140.816C330.682 141.988 330.747 143.16 330.877 144.332C331.007 145.439 331.268 146.448 331.658 147.359C332.049 148.206 332.57 148.922 333.221 149.508C333.872 150.029 334.718 150.289 335.76 150.289C336.932 150.289 338.006 150.029 338.982 149.508C339.959 148.922 340.838 148.206 341.619 147.359C342.4 146.448 343.084 145.439 343.67 144.332C344.321 143.16 344.874 141.956 345.33 140.719C344.874 140.784 344.419 140.849 343.963 140.914C343.572 140.914 343.117 140.914 342.596 140.914C340.122 140.914 337.973 140.198 336.15 138.766C334.393 137.268 333.025 135.38 332.049 133.102C331.658 134.469 331.333 135.803 331.072 137.105C330.812 138.408 330.682 139.645 330.682 140.816ZM377.654 150.68C378.045 150.94 378.533 151.07 379.119 151.07C379.77 151.07 380.389 150.94 380.975 150.68C381.626 150.419 382.212 150.061 382.732 149.605C383.318 149.15 383.742 148.564 384.002 147.848C384.262 147.132 384.262 146.122 384.002 144.82C383.742 143.453 383.318 142.021 382.732 140.523C382.212 138.961 381.626 137.398 380.975 135.836C380.324 134.273 379.77 132.841 379.314 131.539C378.924 130.562 378.598 129.651 378.338 128.805C378.077 128.089 377.817 127.405 377.557 126.754C377.361 126.038 377.199 125.549 377.068 125.289C376.743 125.81 376.157 126.656 375.311 127.828C374.529 129 373.65 130.237 372.674 131.539C371.762 132.776 370.883 133.948 370.037 135.055C369.191 136.096 368.605 136.812 368.279 137.203C367.758 137.789 367.238 138.147 366.717 138.277C366.261 138.342 365.87 138.245 365.545 137.984C365.219 137.659 365.024 137.236 364.959 136.715C364.959 136.129 365.219 135.445 365.74 134.664C366.131 134.143 366.717 133.329 367.498 132.223C368.279 131.051 369.061 129.879 369.842 128.707C370.623 127.47 371.339 126.396 371.99 125.484C372.641 124.508 372.999 123.922 373.064 123.727C373.195 123.206 372.999 122.522 372.479 121.676C372.023 120.829 371.958 119.853 372.283 118.746C372.544 117.835 373.13 116.793 374.041 115.621C374.952 114.384 376.027 113.277 377.264 112.301C378.501 111.324 379.77 110.608 381.072 110.152C382.374 109.632 383.546 109.632 384.588 110.152C385.434 110.673 386.118 111.259 386.639 111.91C387.16 112.496 387.355 113.115 387.225 113.766C387.094 114.091 386.899 114.514 386.639 115.035C386.378 115.556 385.988 116.207 385.467 116.988C384.946 117.704 384.197 118.648 383.221 119.82C383.416 121.318 383.676 122.685 384.002 123.922C384.393 125.159 384.751 126.233 385.076 127.145C385.467 128.251 385.89 129.26 386.346 130.172C386.932 131.344 387.55 132.548 388.201 133.785C388.852 135.022 389.438 136.259 389.959 137.496C390.48 138.668 390.903 139.775 391.229 140.816C391.554 141.858 391.652 142.737 391.521 143.453C391.326 144.56 390.74 145.895 389.764 147.457C388.852 149.02 387.68 150.549 386.248 152.047C384.881 153.479 383.286 154.716 381.463 155.758C379.705 156.799 377.85 157.32 375.896 157.32C374.529 157.32 373.195 156.897 371.893 156.051C370.656 155.204 369.581 154.228 368.67 153.121C367.824 151.949 367.173 150.81 366.717 149.703C366.326 148.596 366.294 147.75 366.619 147.164C367.01 146.383 367.368 145.764 367.693 145.309C368.019 144.853 368.507 144.332 369.158 143.746C369.419 143.551 369.744 143.323 370.135 143.062C370.46 142.867 370.916 142.672 371.502 142.477C372.088 142.281 372.771 142.053 373.553 141.793C374.204 143.811 374.79 145.406 375.311 146.578C375.831 147.685 376.255 148.564 376.58 149.215C376.971 149.931 377.329 150.419 377.654 150.68Z" fill="black"/>
<path d="M68.5078 94.043C65.3177 94.043 62.4531 93.1966 59.9141 91.5039C57.375 89.8763 55.2266 87.6302 53.4688 84.7656C51.7109 81.901 50.4089 78.5807 49.5625 74.8047C48.7812 71.0286 48.4883 67.0247 48.6836 62.793C48.944 58.3008 49.6276 53.6784 50.7344 48.9258C51.8411 44.1081 53.3385 39.4206 55.2266 34.8633C57.1146 30.306 59.2956 25.9766 61.7695 21.875C64.3086 17.7734 67.0755 14.1927 70.0703 11.1328C73.1302 8.07292 76.3854 5.66406 79.8359 3.90625C83.2865 2.08333 86.8997 1.17188 90.6758 1.17188C93.1497 1.17188 95.2331 1.79036 96.9258 3.02734C98.6185 4.26432 99.9206 5.89193 100.832 7.91016C101.809 9.86328 102.427 12.0768 102.688 14.5508C102.948 17.0247 102.915 19.4987 102.59 21.9727C102.329 24.3815 101.776 26.7253 100.93 29.0039C100.148 31.2174 99.1719 33.0404 98 34.4727C96.5026 36.3607 95.1354 37.3698 93.8984 37.5C92.7266 37.5651 91.5872 37.207 90.4805 36.4258C90.0247 36.0352 89.569 35.5794 89.1133 35.0586C88.6576 34.6029 88.1693 34.0495 87.6484 33.3984C87.1276 32.6823 86.5742 31.8034 85.9883 30.7617C87.2253 30.306 88.3646 29.5573 89.4062 28.5156C90.4479 27.4089 91.3268 26.1719 92.043 24.8047C92.8242 23.4375 93.4102 22.0052 93.8008 20.5078C94.2565 18.9453 94.5169 17.4154 94.582 15.918C94.6471 14.7461 94.6146 13.6068 94.4844 12.5C94.3542 11.3281 94.0938 10.319 93.7031 9.47266C93.3125 8.5612 92.7591 7.84505 92.043 7.32422C91.3919 6.73828 90.5456 6.44531 89.5039 6.44531C86.8997 6.44531 84.3607 7.45443 81.8867 9.47266C79.4128 11.4258 77.069 14.0625 74.8555 17.3828C72.707 20.638 70.6888 24.3815 68.8008 28.6133C66.9779 32.8451 65.3828 37.207 64.0156 41.6992C62.6484 46.1914 61.5417 50.6185 60.6953 54.9805C59.849 59.3424 59.3281 63.3138 59.1328 66.8945C58.8724 71.3867 59.0352 75.0326 59.6211 77.832C60.207 80.6315 60.9883 82.8125 61.9648 84.375C63.0065 86.0026 64.1133 87.0768 65.2852 87.5977C66.457 88.1836 67.5312 88.4766 68.5078 88.4766C70.3307 88.4766 72.3815 87.6302 74.6602 85.9375C76.9388 84.2448 79.1198 81.9336 81.2031 79.0039C83.2865 76.1393 85.1419 72.819 86.7695 69.043C88.4622 65.2669 89.6667 61.2956 90.3828 57.1289C88.7552 57.1289 87.0951 57.1615 85.4023 57.2266C83.7747 57.2266 82.2122 57.2591 80.7148 57.3242C79.2174 57.3893 77.8828 57.487 76.7109 57.6172C75.5391 57.6823 74.6276 57.7799 73.9766 57.9102C73.5208 57.7148 73.1953 57.487 73 57.2266C72.8698 56.9661 72.7396 56.6732 72.6094 56.3477C72.4792 56.0872 72.4141 55.7617 72.4141 55.3711C72.4141 54.9805 72.4792 54.6224 72.6094 54.2969C72.7396 53.9714 72.9023 53.6458 73.0977 53.3203C73.293 52.9297 73.5534 52.5391 73.8789 52.1484C75.9622 51.7578 78.013 51.4323 80.0312 51.1719C82.0495 50.9115 84.1328 50.7161 86.2812 50.5859C88.4948 50.3906 90.8385 50.2604 93.3125 50.1953C95.8516 50.0651 98.6836 49.9674 101.809 49.9023C103.111 49.8372 103.892 50 104.152 50.3906C104.478 50.7812 104.38 51.7578 103.859 53.3203C103.469 54.5573 102.948 55.5664 102.297 56.3477C101.711 57.1289 100.702 57.4544 99.2695 57.3242C98.8138 57.3242 98.4557 57.2917 98.1953 57.2266C97.6094 61.0677 96.3724 65.1367 94.4844 69.4336C92.5964 73.7305 90.2852 77.7018 87.5508 81.3477C84.8164 84.9935 81.7891 88.0208 78.4688 90.4297C75.2135 92.8385 71.8932 94.043 68.5078 94.043ZM162.59 54.6875C160.637 57.5521 158.423 60.3516 155.949 63.0859C153.475 65.7552 150.839 68.1641 148.039 70.3125C145.305 72.3958 142.473 74.0885 139.543 75.3906C136.678 76.6927 133.879 77.3438 131.145 77.3438C129.712 77.3438 128.15 76.9857 126.457 76.2695C124.829 75.6185 123.332 74.5768 121.965 73.1445C120.598 71.7122 119.491 69.8568 118.645 67.5781C117.863 65.2995 117.635 62.5326 117.961 59.2773C118.221 56.6081 119.035 53.8086 120.402 50.8789C121.835 47.8841 123.56 45.1497 125.578 42.6758C127.661 40.2018 129.973 38.151 132.512 36.5234C135.116 34.8958 137.72 34.082 140.324 34.082C142.798 34.082 144.589 34.7005 145.695 35.9375C146.802 37.1745 147.29 38.7044 147.16 40.5273C146.965 42.5456 146.379 44.401 145.402 46.0938C144.491 47.7865 143.384 49.3164 142.082 50.6836C140.78 52.0508 139.38 53.2878 137.883 54.3945C136.451 55.5013 135.083 56.5104 133.781 57.4219C132.349 58.3984 130.982 59.3424 129.68 60.2539C128.378 61.1003 127.238 61.8815 126.262 62.5977C126.327 64.2253 126.62 65.5924 127.141 66.6992C127.661 67.806 128.312 68.7174 129.094 69.4336C129.875 70.0846 130.754 70.5729 131.73 70.8984C132.772 71.1589 133.814 71.2891 134.855 71.2891C137.069 71.2891 139.38 70.6055 141.789 69.2383C144.198 67.806 146.542 66.1133 148.82 64.1602C151.164 62.1419 153.312 60.0586 155.266 57.9102C157.284 55.7617 158.944 53.9062 160.246 52.3438C160.702 51.8229 161.158 51.5299 161.613 51.4648C162.134 51.3346 162.525 51.3997 162.785 51.6602C163.111 51.8555 163.273 52.2461 163.273 52.832C163.273 53.3529 163.046 53.9714 162.59 54.6875ZM137.59 39.6484C136.809 39.6484 135.865 40.0391 134.758 40.8203C133.716 41.6016 132.674 42.7409 131.633 44.2383C130.591 45.6706 129.615 47.4609 128.703 49.6094C127.792 51.6927 127.108 54.1016 126.652 56.8359C127.434 56.25 128.28 55.6641 129.191 55.0781C130.103 54.4271 131.014 53.7435 131.926 53.0273C134.725 50.8789 136.678 48.9909 137.785 47.3633C138.892 45.7357 139.51 44.3359 139.641 43.1641C139.771 41.9271 139.641 41.0482 139.25 40.5273C138.859 39.9414 138.306 39.6484 137.59 39.6484ZM179.328 71.6797C179.719 71.9401 180.207 72.0703 180.793 72.0703C181.444 72.0703 182.062 71.9401 182.648 71.6797C183.299 71.4193 183.885 71.0612 184.406 70.6055C184.992 70.1497 185.415 69.5638 185.676 68.8477C185.936 68.1315 185.936 67.1224 185.676 65.8203C185.415 64.4531 184.992 63.0208 184.406 61.5234C183.885 59.9609 183.299 58.3984 182.648 56.8359C181.997 55.2734 181.444 53.8411 180.988 52.5391C180.598 51.5625 180.272 50.651 180.012 49.8047C179.751 49.0885 179.491 48.4049 179.23 47.7539C179.035 47.0378 178.872 46.5495 178.742 46.2891C178.417 46.8099 177.831 47.6562 176.984 48.8281C176.203 50 175.324 51.237 174.348 52.5391C173.436 53.776 172.557 54.9479 171.711 56.0547C170.865 57.0964 170.279 57.8125 169.953 58.2031C169.432 58.7891 168.911 59.1471 168.391 59.2773C167.935 59.3424 167.544 59.2448 167.219 58.9844C166.893 58.6589 166.698 58.2357 166.633 57.7148C166.633 57.1289 166.893 56.4453 167.414 55.6641C167.805 55.1432 168.391 54.3294 169.172 53.2227C169.953 52.0508 170.734 50.8789 171.516 49.707C172.297 48.4701 173.013 47.3958 173.664 46.4844C174.315 45.5078 174.673 44.9219 174.738 44.7266C174.868 44.2057 174.673 43.5221 174.152 42.6758C173.697 41.8294 173.632 40.8529 173.957 39.7461C174.217 38.8346 174.803 37.793 175.715 36.6211C176.626 35.3841 177.701 34.2773 178.938 33.3008C180.174 32.3242 181.444 31.6081 182.746 31.1523C184.048 30.6315 185.22 30.6315 186.262 31.1523C187.108 31.6732 187.792 32.2591 188.312 32.9102C188.833 33.4961 189.029 34.1146 188.898 34.7656C188.768 35.0911 188.573 35.5143 188.312 36.0352C188.052 36.556 187.661 37.207 187.141 37.9883C186.62 38.7044 185.871 39.6484 184.895 40.8203C185.09 42.3177 185.35 43.6849 185.676 44.9219C186.066 46.1589 186.424 47.2331 186.75 48.1445C187.141 49.2513 187.564 50.2604 188.02 51.1719C188.605 52.3438 189.224 53.5482 189.875 54.7852C190.526 56.0221 191.112 57.2591 191.633 58.4961C192.154 59.668 192.577 60.7747 192.902 61.8164C193.228 62.8581 193.326 63.737 193.195 64.4531C193 65.5599 192.414 66.8945 191.438 68.457C190.526 70.0195 189.354 71.5495 187.922 73.0469C186.555 74.4792 184.96 75.7161 183.137 76.7578C181.379 77.7995 179.523 78.3203 177.57 78.3203C176.203 78.3203 174.868 77.8971 173.566 77.0508C172.329 76.2044 171.255 75.2279 170.344 74.1211C169.497 72.9492 168.846 71.8099 168.391 70.7031C168 69.5964 167.967 68.75 168.293 68.1641C168.684 67.3828 169.042 66.7643 169.367 66.3086C169.693 65.8529 170.181 65.332 170.832 64.7461C171.092 64.5508 171.418 64.3229 171.809 64.0625C172.134 63.8672 172.59 63.6719 173.176 63.4766C173.762 63.2812 174.445 63.0534 175.227 62.793C175.878 64.8112 176.464 66.4062 176.984 67.5781C177.505 68.6849 177.928 69.5638 178.254 70.2148C178.645 70.931 179.003 71.4193 179.328 71.6797ZM246.75 50.293C247.01 49.9023 247.336 49.6745 247.727 49.6094C248.182 49.4792 248.54 49.5117 248.801 49.707C249.061 49.9023 249.191 50.2279 249.191 50.6836C249.257 51.1393 249.094 51.7578 248.703 52.5391C247.401 55.013 245.676 57.6823 243.527 60.5469C241.444 63.4115 239.23 66.1133 236.887 68.6523C234.543 71.1263 232.264 73.1771 230.051 74.8047C227.837 76.4323 225.982 77.2461 224.484 77.2461C222.336 77.2461 220.546 76.8229 219.113 75.9766C217.681 75.1302 216.542 74.0885 215.695 72.8516C214.914 71.6146 214.361 70.2799 214.035 68.8477C213.71 67.3503 213.612 65.9831 213.742 64.7461C213.807 63.7044 214.035 61.849 214.426 59.1797C214.816 56.4453 215.337 53.3203 215.988 49.8047C216.639 46.224 217.355 42.4154 218.137 38.3789C218.983 34.2773 219.862 30.3385 220.773 26.5625C219.667 26.6927 218.56 26.8229 217.453 26.9531C216.346 27.0833 215.337 27.1484 214.426 27.1484C212.342 27.1484 210.389 26.9206 208.566 26.4648C206.678 25.944 205.279 25.4557 204.367 25C203.846 24.7396 203.618 24.3815 203.684 23.9258C203.749 23.4049 203.944 22.9167 204.27 22.4609C204.595 21.9401 205.018 21.5169 205.539 21.1914C205.995 20.8008 206.418 20.6055 206.809 20.6055C208.046 20.7357 209.38 20.8659 210.812 20.9961C212.245 21.0612 213.807 21.0612 215.5 20.9961C216.737 20.931 217.909 20.8333 219.016 20.7031C220.188 20.5729 221.327 20.4102 222.434 20.2148C223.28 17.0898 224.094 14.388 224.875 12.1094C225.721 9.76562 226.47 8.13802 227.121 7.22656C227.316 6.90104 227.74 6.64062 228.391 6.44531C229.107 6.1849 229.855 6.02214 230.637 5.95703C231.418 5.82682 232.167 5.82682 232.883 5.95703C233.599 6.02214 234.12 6.25 234.445 6.64062C234.771 7.16146 234.901 8.49609 234.836 10.6445C234.771 12.793 234.413 15.5273 233.762 18.8477C236.496 18.8477 238.905 19.0104 240.988 19.3359C243.137 19.5964 244.96 19.9219 246.457 20.3125C247.954 20.638 249.159 20.9961 250.07 21.3867C250.982 21.7122 251.665 21.9401 252.121 22.0703C252.577 22.2005 252.805 22.526 252.805 23.0469C252.87 23.5677 252.772 24.1211 252.512 24.707C252.316 25.2279 251.958 25.6836 251.438 26.0742C250.917 26.4648 250.331 26.5951 249.68 26.4648C249.029 26.3997 248.28 26.2695 247.434 26.0742C246.652 25.8789 245.676 25.7161 244.504 25.5859C243.397 25.4557 242.062 25.3255 240.5 25.1953C238.938 25.0651 237.115 25 235.031 25C234.641 25 234.185 25.0326 233.664 25.0977C233.208 25.0977 232.72 25.0977 232.199 25.0977C231.939 26.1393 231.678 27.181 231.418 28.2227C231.223 29.1992 230.93 30.2409 230.539 31.3477C229.693 33.9518 228.716 36.7839 227.609 39.8438C226.633 42.513 225.461 45.5729 224.094 49.0234C222.727 52.474 221.197 56.1523 219.504 60.0586C219.113 62.8581 219.146 65.0065 219.602 66.5039C220.122 67.9362 220.741 68.9779 221.457 69.6289C222.303 70.3451 223.345 70.7357 224.582 70.8008C225.559 70.931 226.73 70.6055 228.098 69.8242C229.53 68.9779 230.995 67.8711 232.492 66.5039C233.99 65.1367 235.487 63.6393 236.984 62.0117C238.547 60.3841 239.979 58.7891 241.281 57.2266C242.583 55.6641 243.723 54.2643 244.699 53.0273C245.676 51.7253 246.359 50.8138 246.75 50.293ZM272.375 17.4805C272.18 18.1966 271.789 18.9128 271.203 19.6289C270.682 20.2799 270.064 20.8333 269.348 21.2891C268.697 21.6797 268.013 21.9401 267.297 22.0703C266.581 22.2005 265.995 22.0703 265.539 21.6797C264.172 20.638 263.456 19.5312 263.391 18.3594C263.326 17.1224 263.618 15.9831 264.27 14.9414C264.921 13.8346 265.734 12.9232 266.711 12.207C267.688 11.4258 268.534 10.9701 269.25 10.8398C269.966 10.7096 270.552 10.8724 271.008 11.3281C271.529 11.7188 271.919 12.2721 272.18 12.9883C272.44 13.6393 272.57 14.388 272.57 15.2344C272.635 16.0807 272.57 16.8294 272.375 17.4805ZM258.898 38.2812C259.224 37.8906 259.842 37.5651 260.754 37.3047C261.665 37.0443 262.609 36.849 263.586 36.7188C264.562 36.5234 265.441 36.4258 266.223 36.4258C267.069 36.3607 267.557 36.3607 267.688 36.4258C267.753 36.4909 267.59 37.1745 267.199 38.4766C266.809 39.7786 266.32 41.3086 265.734 43.0664C265.148 44.8242 264.53 46.6471 263.879 48.5352C263.228 50.3581 262.74 51.8555 262.414 53.0273C262.089 54.1992 261.698 55.5339 261.242 57.0312C260.786 58.4635 260.363 59.8958 259.973 61.3281C259.647 62.6953 259.419 63.9974 259.289 65.2344C259.159 66.4714 259.257 67.4154 259.582 68.0664C259.908 68.8477 260.266 69.401 260.656 69.7266C261.047 69.987 261.47 70.1172 261.926 70.1172C263.228 70.1172 264.855 69.401 266.809 67.9688C268.827 66.5365 270.845 64.8438 272.863 62.8906C274.947 60.8724 276.867 58.8542 278.625 56.8359C280.383 54.7526 281.685 53.0924 282.531 51.8555C283.052 51.2044 283.573 50.7812 284.094 50.5859C284.68 50.3906 285.135 50.4232 285.461 50.6836C285.852 50.944 286.047 51.3672 286.047 51.9531C286.112 52.5391 285.917 53.2227 285.461 54.0039C284.419 55.8268 282.889 58.0078 280.871 60.5469C278.853 63.0208 276.704 65.4297 274.426 67.7734C272.147 70.0521 269.901 72.0052 267.688 73.6328C265.539 75.2604 263.781 76.1068 262.414 76.1719C261.307 76.237 260.201 76.0417 259.094 75.5859C258.052 75.1953 257.076 74.6419 256.164 73.9258C255.318 73.1445 254.602 72.2656 254.016 71.2891C253.43 70.2474 253.104 69.1732 253.039 68.0664C252.844 66.4388 252.844 64.2253 253.039 61.4258C253.234 58.5612 253.592 55.6641 254.113 52.7344C254.634 49.7396 255.285 46.9076 256.066 44.2383C256.913 41.569 257.857 39.5833 258.898 38.2812ZM317.238 59.4727C316.587 61.9466 315.708 64.2578 314.602 66.4062C313.495 68.5547 312.16 70.4102 310.598 71.9727C309.1 73.5352 307.375 74.7396 305.422 75.5859C303.534 76.4974 301.451 76.9531 299.172 76.9531C296.503 76.9531 294.387 76.3672 292.824 75.1953C291.327 74.0885 290.188 72.6888 289.406 70.9961C288.69 69.3034 288.267 67.4479 288.137 65.4297C287.941 63.4115 287.844 61.5234 287.844 59.7656C287.844 58.5286 288.007 57.1615 288.332 55.6641C288.592 54.1667 288.983 52.6367 289.504 51.0742C290.025 49.5117 290.676 47.9492 291.457 46.3867C292.303 44.8242 293.28 43.3919 294.387 42.0898C294.777 40.9831 295.363 40.0065 296.145 39.1602C296.991 38.3138 297.935 37.6302 298.977 37.1094C300.083 36.5234 301.255 36.1003 302.492 35.8398C303.729 35.5143 304.934 35.3516 306.105 35.3516C306.301 35.3516 306.464 35.3841 306.594 35.4492C306.789 35.5143 306.984 35.5794 307.18 35.6445C308.026 35.7096 309.068 36.0352 310.305 36.6211C311.607 37.207 312.844 38.0859 314.016 39.2578C315.253 40.4297 316.294 41.9271 317.141 43.75C317.987 45.5078 318.41 47.6562 318.41 50.1953C318.41 50.7161 318.378 51.3672 318.312 52.1484C318.247 52.8646 318.182 53.4831 318.117 54.0039C319.615 53.418 321.177 52.7018 322.805 51.8555C324.432 51.0091 325.995 50.1302 327.492 49.2188C329.055 48.2422 330.487 47.2656 331.789 46.2891C333.091 45.3125 334.133 44.4336 334.914 43.6523C335.565 43.0664 336.118 42.7409 336.574 42.6758C337.03 42.6107 337.355 42.7409 337.551 43.0664C337.746 43.3919 337.779 43.8477 337.648 44.4336C337.518 45.0195 337.16 45.6706 336.574 46.3867C336.249 46.7773 335.402 47.5586 334.035 48.7305C332.733 49.9023 331.171 51.1719 329.348 52.5391C327.525 53.9062 325.539 55.2409 323.391 56.543C321.242 57.8451 319.191 58.8216 317.238 59.4727ZM300.734 44.6289C300.539 45.2148 300.441 45.8333 300.441 46.4844C300.441 47.526 300.507 48.6328 300.637 49.8047C300.767 50.9115 301.092 51.9206 301.613 52.832C302.134 53.7435 302.948 54.5247 304.055 55.1758C305.227 55.7617 306.822 56.0547 308.84 56.0547C309.165 56.0547 309.491 56.0547 309.816 56.0547C310.142 55.9896 310.467 55.9245 310.793 55.8594C310.988 55.013 311.151 54.2643 311.281 53.6133C311.477 52.8971 311.574 52.2786 311.574 51.7578C311.704 50.5208 311.704 49.2513 311.574 47.9492C311.444 46.6471 311.184 45.4753 310.793 44.4336C310.467 43.3268 310.012 42.4479 309.426 41.7969C308.905 41.0807 308.254 40.7227 307.473 40.7227C306.236 40.7227 305.031 41.0807 303.859 41.7969C302.753 42.4479 301.711 43.3919 300.734 44.6289ZM294.484 61.8164C294.484 62.9883 294.549 64.1602 294.68 65.332C294.81 66.4388 295.07 67.4479 295.461 68.3594C295.852 69.2057 296.372 69.9219 297.023 70.5078C297.674 71.0286 298.521 71.2891 299.562 71.2891C300.734 71.2891 301.809 71.0286 302.785 70.5078C303.762 69.9219 304.641 69.2057 305.422 68.3594C306.203 67.4479 306.887 66.4388 307.473 65.332C308.124 64.1602 308.677 62.9557 309.133 61.7188C308.677 61.7839 308.221 61.849 307.766 61.9141C307.375 61.9141 306.919 61.9141 306.398 61.9141C303.924 61.9141 301.776 61.1979 299.953 59.7656C298.195 58.2682 296.828 56.3802 295.852 54.1016C295.461 55.4688 295.135 56.8034 294.875 58.1055C294.615 59.4076 294.484 60.6445 294.484 61.8164ZM315.578 15.918C316.164 15.4622 316.815 15.4948 317.531 16.0156C318.247 16.5365 318.768 17.3177 319.094 18.3594C319.549 19.7266 319.582 20.7682 319.191 21.4844C318.801 22.1354 318.215 22.7214 317.434 23.2422C317.043 23.5677 316.294 24.0234 315.188 24.6094C314.146 25.1953 312.974 25.8138 311.672 26.4648C310.435 27.0508 309.198 27.6042 307.961 28.125C306.724 28.5807 305.78 28.8411 305.129 28.9062C304.413 28.9714 303.859 28.9062 303.469 28.7109C303.078 28.4505 302.753 28.1576 302.492 27.832C302.297 27.5065 302.167 27.1484 302.102 26.7578C302.036 26.3021 302.004 25.9115 302.004 25.5859C307.082 22.0703 310.63 19.5638 312.648 18.0664C313.82 17.2201 314.797 16.5039 315.578 15.918ZM366.691 77.4414C365.194 77.4414 363.892 77.1484 362.785 76.5625C361.743 76.0417 360.897 75.3255 360.246 74.4141C359.595 73.5026 359.172 72.4609 358.977 71.2891C358.781 70.0521 358.846 68.75 359.172 67.3828C359.367 66.4714 359.693 65.2669 360.148 63.7695C360.604 62.207 361.06 60.5469 361.516 58.7891C362.036 56.9661 362.492 55.1758 362.883 53.418C363.339 51.5951 363.632 49.9674 363.762 48.5352C363.892 47.0378 363.827 45.8333 363.566 44.9219C363.306 43.9453 362.753 43.457 361.906 43.457C360.865 43.457 359.79 43.8151 358.684 44.5312C357.577 45.1823 356.438 46.0938 355.266 47.2656C354.159 48.4375 353.02 49.8047 351.848 51.3672C350.741 52.8646 349.634 54.4271 348.527 56.0547C347.941 58.2682 347.453 60.2214 347.062 61.9141C346.672 63.5417 346.314 65.0391 345.988 66.4062C345.728 67.7083 345.467 68.8802 345.207 69.9219C344.947 70.8984 344.719 71.8424 344.523 72.7539C344.328 73.4049 343.742 74.056 342.766 74.707C341.789 75.293 340.747 75.7812 339.641 76.1719C338.534 76.5625 337.59 76.7578 336.809 76.7578C335.962 76.7578 335.604 76.4648 335.734 75.8789C335.799 75.4883 336.027 74.6094 336.418 73.2422C336.743 71.875 337.167 70.2799 337.688 68.457C338.143 66.569 338.632 64.5833 339.152 62.5C339.673 60.4167 340.161 58.431 340.617 56.543C340.943 55.0456 341.301 53.3854 341.691 51.5625C342.017 50 342.408 48.1771 342.863 46.0938C343.384 44.0104 343.97 41.7318 344.621 39.2578C345.077 38.8672 345.533 38.5742 345.988 38.3789C346.509 38.1185 347.03 37.9232 347.551 37.793C348.072 37.5977 348.625 37.4674 349.211 37.4023C349.732 37.4023 350.253 37.4349 350.773 37.5C351.229 37.5651 351.685 37.6953 352.141 37.8906C352.661 38.0208 353.117 38.2487 353.508 38.5742C353.312 39.0299 353.085 39.681 352.824 40.5273C352.564 41.3086 352.303 42.1549 352.043 43.0664C351.783 44.1081 351.457 45.1823 351.066 46.2891C351.913 45.1172 352.857 43.9453 353.898 42.7734C355.005 41.5365 356.177 40.4297 357.414 39.4531C358.716 38.4766 360.083 37.6953 361.516 37.1094C362.948 36.4583 364.413 36.1328 365.91 36.1328C367.147 36.1328 368.254 36.4909 369.23 37.207C370.207 37.9232 370.956 38.9323 371.477 40.2344C372.062 41.4714 372.388 42.9688 372.453 44.7266C372.583 46.4844 372.355 48.4049 371.77 50.4883L370.695 54.7852C370.37 56.1523 369.947 57.7799 369.426 59.668C368.97 61.4909 368.384 63.5091 367.668 65.7227C367.277 67.1549 367.115 68.3919 367.18 69.4336C367.31 70.4753 367.961 70.9961 369.133 70.9961C370.305 70.9961 371.77 70.2799 373.527 68.8477C375.35 67.4154 377.173 65.6901 378.996 63.6719C380.819 61.6536 382.544 59.6029 384.172 57.5195C385.799 55.3711 387.036 53.6458 387.883 52.3438C388.469 51.4974 389.022 50.944 389.543 50.6836C390.064 50.4232 390.454 50.3906 390.715 50.5859C391.04 50.7812 391.203 51.237 391.203 51.9531C391.203 52.6042 390.943 53.4505 390.422 54.4922C389.966 55.4036 389.25 56.6081 388.273 58.1055C387.362 59.6029 386.255 61.1979 384.953 62.8906C383.651 64.5833 382.251 66.3086 380.754 68.0664C379.257 69.7591 377.694 71.3216 376.066 72.7539C374.439 74.1211 372.811 75.2279 371.184 76.0742C369.621 76.9857 368.124 77.4414 366.691 77.4414Z" fill="black"/>
</svg>
